<?xml version="1.0" encoding="utf-8"?>
<svg version="1.1" id="" xmlns="http://www.w3.org/2000/svg" xmlns:xlink="http://www.w3.org/1999/xlink" x="0px" y="0px" viewBox="0 0 320 320" style="enable-background:new 0 0 320 320;" xml:space="preserve">
<style>
    path {
        fill: #150035;
    }
    @media (prefers-color-scheme: dark) {
        path {
            fill: #fff;
        }
    }
</style>
<g>
	<path d="M107.5,3.4c-0.8,9.4-1.5,16.2-1.5,29.7v127.9c0,9.4,0.8,25.2,1.5,35H39.9c0.4-7.5,1.9-23.7,1.9-35.3V33.1
		c0-7.1-0.4-20.3-1.5-29.7H107.5z M280.1,0c-0.8,11.3-1.5,24.1-1.5,40.6v82c0,75.6-17.7,113.2-46.2,143.3
		c-25.2,26.3-64.7,45.5-92.1,54.1l-47.8-50.4c39.1-8.6,69.9-22.6,92.5-45.9c25.2-26.7,30.5-53.4,30.5-105.3V40.6
		c0-16.5-1.1-29.3-2.6-40.6H280.1z"/>
</g>
</svg>
