<svg width="164" height="100" viewBox="0 0 164 100" fill="none" xmlns="http://www.w3.org/2000/svg">
<path d="M0.921509 28.8888L0.938918 34.8534C0.9424 36.1568 1.79896 37.4579 3.50974 38.4525L106.835 98.4984C110.28 100.501 115.881 100.501 119.348 98.4984L160.467 74.7586C162.211 73.7512 163.082 72.4304 163.078 71.1107L163.061 65.1462C163.061 65.1462 163.061 65.1543 163.061 65.1589C163.063 63.8521 162.207 62.5452 160.49 61.547L57.164 1.50115C53.7203 -0.499802 48.1179 -0.500963 44.6522 1.50115L3.53296 25.2409C1.7386 26.2774 0.870441 27.6458 0.926152 29.0026C0.924992 28.9654 0.921509 28.9271 0.921509 28.89V28.8888Z" fill="#DDD9E1"/>
<path style="mix-blend-mode:screen" opacity="0.4" d="M0.921509 28.8888L0.938918 34.8533C0.9424 36.1567 1.79896 37.4578 3.50974 38.4525L3.49233 32.4879C1.78154 31.4933 0.924991 30.1922 0.921509 28.8888Z" fill="url(#paint0_linear_49_863)"/>
<path style="mix-blend-mode:screen" opacity="0.6" d="M163.077 65.1705V71.1525C163.074 72.4559 162.2 73.7396 160.489 74.7342L160.506 68.7697C162.217 67.775 163.074 66.4739 163.077 65.1705Z" fill="url(#paint1_linear_49_863)"/>
<path style="mix-blend-mode:screen" opacity="0.4" d="M106.817 92.5339L106.835 98.4985C110.28 100.501 115.881 100.501 119.348 98.4985L119.33 92.5339C115.864 94.536 110.262 94.536 106.817 92.5339Z" fill="url(#paint2_linear_49_863)"/>
<path d="M132.219 88.2057C132.219 88.3194 132.259 88.4007 132.324 88.4413C132.402 88.4924 132.517 88.4866 132.644 88.4134C132.876 88.2788 133.069 87.9643 133.069 87.7159C133.069 87.5371 132.969 87.4397 132.826 87.4501C132.772 87.4536 132.71 87.4722 132.645 87.5105C132.411 87.6451 132.221 87.9585 132.221 88.2068L132.219 88.2057Z" fill="#353436"/>
<path d="M125.425 92.1299C125.425 92.2413 125.463 92.3214 125.527 92.3644C125.605 92.4166 125.72 92.4131 125.849 92.3377C126.083 92.2019 126.273 91.8885 126.273 91.6401C126.273 91.4602 126.174 91.3604 126.029 91.372C125.974 91.3755 125.915 91.3941 125.849 91.4324C125.614 91.567 125.424 91.8815 125.424 92.1299H125.425Z" fill="#353436"/>
<path d="M127.123 91.149C127.123 91.2605 127.161 91.3405 127.225 91.3835C127.303 91.4357 127.42 91.4299 127.549 91.3556C127.781 91.221 127.974 90.9076 127.974 90.6592C127.974 90.4793 127.874 90.3807 127.731 90.3911C127.675 90.3946 127.614 90.4132 127.55 90.4515C127.316 90.5861 127.124 90.9007 127.124 91.149H127.123Z" fill="#353436"/>
<path d="M130.52 89.1877C130.52 89.3002 130.56 89.3803 130.625 89.4221C130.702 89.4732 130.817 89.4674 130.945 89.3942C131.18 89.2596 131.37 88.9462 131.37 88.6979C131.37 88.5168 131.27 88.4181 131.127 88.4298C131.073 88.4332 131.011 88.4518 130.946 88.4901C130.712 88.6247 130.521 88.9393 130.521 89.1877H130.52Z" fill="#353436"/>
<path d="M128.822 90.1683C128.822 90.2797 128.862 90.361 128.924 90.4028C129.003 90.455 129.119 90.4492 129.246 90.3749C129.48 90.2403 129.671 89.9269 129.671 89.6785C129.671 89.4986 129.571 89.4 129.428 89.4104C129.374 89.4139 129.312 89.4325 129.247 89.4708C129.015 89.6054 128.822 89.9199 128.822 90.1683Z" fill="#353436"/>
<path d="M132.219 88.2057C132.219 88.3195 132.259 88.4007 132.324 88.4413C132.378 88.4378 132.438 88.4193 132.504 88.381C132.736 88.2463 132.929 87.9318 132.929 87.6834C132.929 87.572 132.89 87.4919 132.826 87.449C132.772 87.4525 132.71 87.471 132.645 87.5093C132.411 87.644 132.221 87.9573 132.221 88.2057H132.219Z" fill="#000D1B"/>
<path d="M125.425 92.1297C125.425 92.2412 125.463 92.3212 125.527 92.3642C125.582 92.3607 125.643 92.3421 125.708 92.3038C125.943 92.1692 126.133 91.8547 126.133 91.6063C126.133 91.4937 126.094 91.4136 126.029 91.3718C125.974 91.3753 125.915 91.3939 125.849 91.4322C125.614 91.5668 125.424 91.8814 125.424 92.1297H125.425Z" fill="#000D1B"/>
<path d="M127.123 91.1491C127.123 91.2606 127.161 91.3406 127.225 91.3836C127.281 91.3801 127.342 91.3615 127.408 91.3232C127.641 91.1886 127.833 90.8741 127.833 90.6257C127.833 90.5143 127.794 90.433 127.731 90.3912C127.675 90.3947 127.614 90.4133 127.55 90.4516C127.316 90.5862 127.124 90.9008 127.124 91.1491H127.123Z" fill="#000D1B"/>
<path d="M130.52 89.1876C130.52 89.3002 130.56 89.3803 130.625 89.422C130.679 89.4186 130.738 89.4 130.805 89.3617C131.039 89.227 131.229 88.9125 131.229 88.6641C131.229 88.5527 131.191 88.4726 131.127 88.4297C131.073 88.4332 131.011 88.4517 130.946 88.49C130.712 88.6247 130.521 88.9392 130.521 89.1876H130.52Z" fill="#000D1B"/>
<path d="M128.822 90.1682C128.822 90.2796 128.862 90.3608 128.924 90.4026C128.98 90.3991 129.042 90.3806 129.105 90.3423C129.34 90.2076 129.53 89.8931 129.53 89.6447C129.53 89.5333 129.491 89.4521 129.428 89.4103C129.374 89.4138 129.312 89.4323 129.247 89.4706C129.015 89.6053 128.822 89.9198 128.822 90.1682Z" fill="#000D1B"/>
<path d="M154.902 74.7404C154.902 74.8518 154.94 74.9319 155.004 74.9748C155.082 75.0271 155.197 75.0236 155.325 74.9481C155.558 74.8135 155.75 74.499 155.75 74.2506C155.75 74.0707 155.649 73.9709 155.504 73.9825C155.45 73.986 155.388 74.0045 155.325 74.0428C155.091 74.1786 154.901 74.492 154.901 74.7404H154.902Z" fill="#353436"/>
<path d="M156.6 73.7595C156.6 73.871 156.638 73.951 156.702 73.994C156.781 74.0462 156.897 74.0427 157.023 73.9673C157.258 73.8315 157.449 73.5181 157.449 73.2698C157.449 73.0899 157.348 72.99 157.203 73.0016C157.149 73.0051 157.087 73.0237 157.023 73.062C156.791 73.1966 156.599 73.5112 156.599 73.7595H156.6Z" fill="#353436"/>
<path d="M153.204 75.7211C153.204 75.8337 153.243 75.9138 153.308 75.9567C153.386 76.0078 153.501 76.002 153.629 75.9288C153.863 75.7942 154.053 75.4797 154.053 75.2313C154.053 75.0514 153.953 74.9516 153.808 74.9632C153.754 74.9667 153.692 74.9864 153.629 75.0247C153.394 75.1593 153.204 75.4727 153.204 75.7211Z" fill="#353436"/>
<path d="M149.807 77.6814C149.807 77.794 149.846 77.8764 149.912 77.917C149.99 77.9681 150.104 77.9623 150.231 77.8891C150.463 77.7545 150.656 77.44 150.656 77.1916C150.656 77.0129 150.556 76.9154 150.414 76.9258C150.359 76.9293 150.297 76.9479 150.232 76.9862C149.998 77.1208 149.808 77.4342 149.808 77.6826L149.807 77.6814Z" fill="#353436"/>
<path d="M151.505 76.7017C151.505 76.8142 151.544 76.8943 151.609 76.9373C151.688 76.9883 151.802 76.9825 151.929 76.9094C152.164 76.7748 152.355 76.4602 152.355 76.2119C152.355 76.0331 152.256 75.9356 152.113 75.9461C152.057 75.9496 151.996 75.9681 151.929 76.0064C151.697 76.1411 151.505 76.4544 151.505 76.7028V76.7017Z" fill="#353436"/>
<path d="M154.902 74.7403C154.902 74.8517 154.94 74.9318 155.004 74.9748C155.058 74.9713 155.12 74.9527 155.185 74.9144C155.417 74.7798 155.61 74.4664 155.61 74.218C155.61 74.1054 155.57 74.023 155.504 73.9824C155.45 73.9859 155.388 74.0045 155.325 74.0428C155.091 74.1786 154.901 74.4919 154.901 74.7403H154.902Z" fill="#000D1B"/>
<path d="M156.6 73.7594C156.6 73.8708 156.638 73.9509 156.702 73.9938C156.756 73.9903 156.818 73.9718 156.883 73.9335C157.117 73.7988 157.309 73.4843 157.309 73.2359C157.309 73.1233 157.27 73.0409 157.203 73.0015C157.149 73.0049 157.087 73.0235 157.023 73.0618C156.791 73.1964 156.599 73.511 156.599 73.7594H156.6Z" fill="#000D1B"/>
<path d="M153.204 75.7209C153.204 75.8335 153.243 75.9136 153.308 75.9565C153.363 75.953 153.424 75.9333 153.488 75.895C153.723 75.7604 153.913 75.447 153.913 75.1986C153.913 75.086 153.873 75.006 153.808 74.963C153.754 74.9665 153.692 74.9862 153.629 75.0245C153.394 75.1592 153.204 75.4725 153.204 75.7209Z" fill="#000D1B"/>
<path d="M149.807 77.6813C149.807 77.7939 149.846 77.8763 149.912 77.9169C149.967 77.9134 150.026 77.8949 150.091 77.8566C150.323 77.7208 150.516 77.4074 150.516 77.159C150.516 77.0476 150.477 76.9675 150.414 76.9246C150.359 76.928 150.297 76.9466 150.232 76.9849C149.998 77.1196 149.808 77.4329 149.808 77.6813H149.807Z" fill="#000D1B"/>
<path d="M151.505 76.7017C151.505 76.8143 151.544 76.8944 151.609 76.9373C151.665 76.9338 151.725 76.9141 151.789 76.8758C152.023 76.7411 152.215 76.4278 152.215 76.1794C152.215 76.068 152.177 75.9879 152.113 75.9449C152.057 75.9484 151.996 75.967 151.929 76.0053C151.697 76.1399 151.505 76.4533 151.505 76.7017Z" fill="#000D1B"/>
<path d="M137.663 84.5413V85.3341C137.663 85.5128 137.72 85.6463 137.814 85.7194C137.932 85.8099 138.105 85.8111 138.297 85.7008L144.781 81.9577C145.129 81.757 145.414 81.2625 145.414 80.8598V80.0671C145.414 79.7827 145.273 79.6179 145.065 79.6167C144.98 79.6156 144.884 79.6434 144.781 79.7015L138.297 83.4445C137.949 83.6453 137.663 84.1398 137.663 84.5425V84.5413Z" fill="#353436"/>
<path d="M137.663 84.5406V85.3333C137.663 85.512 137.72 85.6455 137.814 85.7186C137.898 85.7186 137.995 85.6908 138.098 85.6327L144.579 81.8908C144.927 81.6889 145.213 81.1956 145.213 80.7928V80.0001C145.213 79.8214 145.157 79.6902 145.063 79.6148C144.978 79.6136 144.882 79.6415 144.779 79.6995L138.295 83.4426C137.947 83.6434 137.662 84.1378 137.662 84.5406H137.663Z" fill="#000D1B"/>
<path d="M19.0252 43.0382L24.6857 46.3274C25.382 46.7313 25.9508 47.7167 25.9508 48.5164C25.9508 48.8541 25.8486 49.106 25.678 49.2546C25.678 49.2546 25.6745 49.2592 25.6664 49.265C25.6594 49.2708 25.6513 49.2766 25.6444 49.2824C25.5422 49.3579 25.2312 49.5633 24.8923 49.5552C24.6706 49.5505 24.6984 49.4136 24.7774 49.2824C24.7472 49.2673 24.7158 49.2522 24.6857 49.2337L19.0252 45.9444C18.3288 45.5405 17.7601 44.5551 17.7601 43.7554C17.7601 42.9558 18.33 42.6319 19.0252 43.037V43.0382Z" fill="url(#paint3_linear_49_863)"/>
<path d="M25.5852 48.6637C25.5852 49.4634 25.0153 49.7872 24.3201 49.3821L18.6596 46.0928C17.9632 45.6889 17.3945 44.7036 17.3945 43.9039C17.3945 43.1042 17.9644 42.7804 18.6596 43.1854L24.3201 46.4747C25.0164 46.8786 25.5852 47.864 25.5852 48.6637Z" fill="#D6D2DB"/>
<path d="M29.4003 49.0677L35.0607 52.357C35.7571 52.7609 36.3258 53.7463 36.3258 54.546C36.3258 54.8234 36.2562 55.0416 36.1378 55.1936C36.1378 55.1936 36.0589 55.2981 36.0217 55.3259C35.8755 55.4722 35.5969 55.6149 35.3485 55.5801C35.2511 55.5662 35.1431 55.312 35.0607 55.2644L29.4003 51.9751C28.7039 51.5712 27.6848 50.5406 27.7788 49.7467C27.8694 48.9888 28.7039 48.6627 29.4003 49.0677Z" fill="url(#paint4_linear_49_863)"/>
<path d="M34.6939 52.5036C35.3903 52.9075 35.959 53.8929 35.959 54.6926C35.959 55.4923 35.3892 55.8161 34.6939 55.411L29.0335 52.1218C28.3371 51.7179 27.7684 50.7325 27.7684 49.9328C27.7684 49.1331 28.3382 48.8093 29.0335 49.2144L34.6939 52.5036Z" fill="#D6D2DB"/>
<path d="M113.065 92.9517C115.241 92.9517 117.274 92.47 118.788 91.596L159.908 67.8562C161.241 67.0867 161.976 66.128 161.977 65.1577C161.978 64.1967 161.256 63.2473 159.945 62.4848L56.6196 2.43772C55.1166 1.56376 53.0913 1.08325 50.9151 1.08325C48.7389 1.08325 46.7077 1.56492 45.1931 2.43888L4.07382 26.1787C2.74024 26.9493 2.0044 27.908 2.00324 28.8783C2.00208 29.8393 2.72399 30.7888 4.03552 31.5513L107.361 91.5972C108.864 92.4711 110.889 92.9517 113.064 92.9517H113.065Z" fill="url(#paint5_linear_49_863)"/>
<mask id="mask0_49_863" style="mask-type:luminance" maskUnits="userSpaceOnUse" x="2" y="1" width="160" height="92">
<path d="M113.065 92.9518C115.241 92.9518 117.274 92.4701 118.788 91.5961L159.908 67.8563C161.241 67.0868 161.976 66.1281 161.977 65.1578C161.978 64.1968 161.256 63.2474 159.945 62.4849L56.6196 2.43785C55.1166 1.56388 53.0913 1.08337 50.9151 1.08337C48.7389 1.08337 46.7077 1.56504 45.1931 2.43901L4.07382 26.1788C2.74024 26.9495 2.0044 27.9082 2.00324 28.8785C2.00208 29.8395 2.72399 30.7889 4.03552 31.5514L107.361 91.5973C108.864 92.4713 110.889 92.9518 113.064 92.9518H113.065Z" fill="white"/>
</mask>
<g mask="url(#mask0_49_863)">
<path d="M162.028 49.7106L86.8695 93.3879L104.972 103.839L180.131 60.1622L162.028 49.7106Z" fill="#004086"/>
<path d="M78.0811 1.24463L2.92249 44.922L86.8695 93.3881L162.028 49.7108L78.0811 1.24463Z" fill="#004DA1"/>
<path d="M19.9325 31.4889C19.9377 29.6416 17.3567 28.1367 14.1677 28.1278C10.9787 28.1189 8.38932 29.6093 8.38416 31.4567C8.379 33.304 10.96 34.8089 14.149 34.8178C17.338 34.8267 19.9274 33.3363 19.9325 31.4889Z" fill="#004DA1"/>
<path d="M-16.1144 33.9306L-15.6722 34.186L2.92243 44.9219L78.081 1.24459L59.0442 -9.7467L-16.1144 33.9306Z" fill="#004086"/>
<path d="M138.542 71.0363L137.392 71.4077L138.584 71.6422L138.541 71.0363M137.938 70.254L136.208 71.5493L136.8 71.352L137.938 70.254ZM139.27 70.8019L138.906 70.9191L138.931 71.2882L139.269 70.8007M139.182 69.4706L137.454 71.1384L138.554 70.7833L139.182 69.4706ZM139.73 69.134L139.013 70.6347L139.546 70.4618C139.546 70.4618 139.553 70.4595 139.558 70.4583L140.264 70.2308L139.73 69.1328M139.639 68.6372C139.688 68.6222 139.747 68.6198 139.802 68.6338C139.824 68.6396 139.844 68.6465 139.86 68.6558C139.883 68.6686 139.899 68.6848 139.907 68.7034L140.661 70.2529C140.68 70.2912 140.661 70.3306 140.614 70.3585C140.603 70.3654 140.589 70.3713 140.572 70.3759L139.786 70.6301L138.952 71.8325C138.948 71.8395 138.942 71.8453 138.935 71.8511C138.934 71.8522 138.932 71.8534 138.93 71.8546C138.93 71.8546 138.93 71.8546 138.929 71.8546C138.928 71.8546 138.927 71.8569 138.926 71.858C138.926 71.858 138.924 71.858 138.923 71.8592C138.922 71.8592 138.921 71.8615 138.919 71.8627C138.919 71.8627 138.917 71.8627 138.916 71.8638C138.914 71.865 138.912 71.8662 138.909 71.8673C138.903 71.8708 138.896 71.8743 138.888 71.8778C138.849 71.8952 138.797 71.9033 138.746 71.8975C138.735 71.8975 138.725 71.8952 138.714 71.8929L136.952 71.5447L135.571 72.0066C135.498 72.031 135.405 72.024 135.345 71.9892C135.343 71.988 135.34 71.9857 135.337 71.9845C135.279 71.9451 135.275 71.8882 135.33 71.8476L139.578 68.6639C139.58 68.6628 139.582 68.6605 139.585 68.6593C139.586 68.6593 139.587 68.6581 139.588 68.657C139.589 68.657 139.591 68.6558 139.592 68.6547C139.593 68.6547 139.595 68.6535 139.596 68.6523C139.596 68.6523 139.598 68.6523 139.599 68.6512C139.602 68.65 139.604 68.6477 139.608 68.6465C139.608 68.6465 139.61 68.6465 139.611 68.6454C139.613 68.6454 139.615 68.6442 139.616 68.6431C139.618 68.6431 139.621 68.6407 139.624 68.6396C139.624 68.6396 139.627 68.6396 139.628 68.6384C139.63 68.6384 139.634 68.6361 139.636 68.6361M142.67 67.9374C140.621 66.7547 137.31 66.7535 135.273 67.9374L111.172 81.9429C109.136 83.1256 109.147 85.0441 111.197 86.2268C113.245 87.4095 116.558 87.4095 118.593 86.2268L142.694 72.2213C144.731 71.0375 144.719 69.1201 142.67 67.9374Z" fill="#94D8ED"/>
<path d="M19.363 28.2342C17.1009 26.9285 13.4448 26.9285 11.1967 28.2342C8.94851 29.5399 8.96128 31.6581 11.2234 32.9638C13.4855 34.2695 17.1415 34.2695 19.3897 32.9638C21.6378 31.6581 21.6251 29.5399 19.363 28.2342Z" fill="#E6E7E8"/>
<path d="M32.0012 37.0971C30.367 36.1535 27.7242 36.1523 26.0993 37.0971C24.4756 38.0407 24.4837 39.5715 26.1191 40.5151C27.7544 41.4599 30.3972 41.4599 32.0209 40.5151C33.6458 39.5704 33.6366 38.0407 32.0012 37.0959" fill="#E6E7E8"/>
<path d="M56.1658 51.0478C54.5304 50.103 51.8888 50.103 50.2639 51.0478C48.6401 51.9914 48.6483 53.5223 50.2836 54.4671C51.9178 55.4107 54.5606 55.4107 56.1855 54.4671C57.8104 53.5223 57.8011 51.9926 56.1658 51.049" fill="#E6E7E8"/>
<path d="M46.8098 28.4919C44.8692 27.3719 41.7332 27.3719 39.8054 28.4919L35.1755 31.1822C33.6377 32.0759 33.3336 33.4118 34.2586 34.4854L34.0532 35.7575L36.0774 35.6438C37.9936 36.3378 40.5435 36.2032 42.2021 35.2399L46.8319 32.5495C48.7597 31.4295 48.7493 29.6119 46.8087 28.4919" fill="#E6E7E8"/>
<path d="M75.8306 39.6203C73.89 38.5003 70.7539 38.5003 68.8249 39.6203L59.339 45.1333C57.7396 46.063 57.475 47.472 58.5416 48.5654L58.3443 49.7817L60.4439 49.6633C62.3334 50.2773 64.7661 50.1195 66.3655 49.1898L75.8514 43.6767C77.7793 42.5567 77.7688 40.7391 75.8294 39.6191" fill="#E6E7E8"/>
<path d="M82.835 22.5449C81.1997 21.6002 78.5581 21.6013 76.9332 22.5449C75.3083 23.4897 75.3164 25.0194 76.9517 25.9642C78.5859 26.9078 81.2287 26.9078 82.8536 25.9642C84.4774 25.0206 84.4692 23.4897 82.8339 22.5461" fill="#D1D3D4"/>
<path d="M104.525 35.0671C102.891 34.1235 100.248 34.1235 98.6233 35.0671C96.9984 36.0118 97.0065 37.5416 98.6418 38.4863C100.277 39.4311 102.919 39.4299 104.544 38.4863C106.167 37.5427 106.16 36.0118 104.524 35.0682" fill="#D1D3D4"/>
<path d="M74.7941 27.2177L72.6435 27.3384C70.7574 26.7361 68.3421 26.8962 66.7497 27.8213L59.1672 32.2271C57.2394 33.3471 57.2498 35.1647 59.1904 36.2847C61.131 37.4047 64.2671 37.4047 66.1961 36.2847L73.7786 31.8789C75.371 30.9538 75.6402 29.5541 74.5933 28.4631L74.7941 27.2177Z" fill="#D1D3D4"/>
<path d="M96.4843 39.741L94.3336 39.8617C92.4475 39.2594 90.0322 39.4195 88.4398 40.3446L72.0632 49.8619C70.1353 50.9819 70.1458 52.7994 72.0864 53.9195C74.027 55.0395 77.163 55.0395 79.092 53.9195L95.4687 44.4022C97.0611 43.4772 97.3304 42.0774 96.2835 40.9864L96.4843 39.741Z" fill="#D1D3D4"/>
<path d="M108.18 87.6509L106.535 86.7015C106.408 86.6272 106.201 86.6284 106.075 86.7015C105.947 86.7758 105.948 86.8942 106.076 86.9685L107.72 87.9179L108.18 87.6509ZM110.288 88.8684L108.642 87.9179L108.182 88.1848L109.828 89.1354C109.956 89.2085 110.161 89.2097 110.289 89.1354C110.415 89.0623 110.415 88.9416 110.288 88.8684Z" fill="white"/>
<path d="M110.276 86.7016C110.148 86.6284 109.942 86.6284 109.815 86.7016L108.181 87.651L107.722 87.9179L106.086 88.8685C105.96 88.9416 105.96 89.0623 106.087 89.1354C106.215 89.2086 106.422 89.2086 106.548 89.1354L108.183 88.1849L108.643 87.9179L110.277 86.9685C110.404 86.8954 110.404 86.7747 110.276 86.7016Z" fill="white"/>
<path d="M146.793 65.3829L146.26 65.0742C146.168 65.0219 146.022 65.0208 145.93 65.0742C145.839 65.1264 145.841 65.2123 145.932 65.2645L146.466 65.5732C147.163 65.9748 147.166 66.6283 146.474 67.031C145.783 67.4326 144.654 67.4326 143.958 67.031L143.483 66.7571C143.392 66.7049 143.244 66.7049 143.154 66.7571C143.063 66.8093 143.063 66.8952 143.154 66.9474L143.628 67.2213C144.451 67.696 145.752 67.7262 146.63 67.3119L146.473 67.2213C146.381 67.1691 146.381 67.0832 146.473 67.031C146.564 66.9788 146.711 66.9788 146.803 67.031L146.959 67.1215C147.671 66.612 147.615 65.8587 146.792 65.3829" fill="white"/>
<path d="M142.933 65.8226C142.533 65.5916 142.532 65.2156 142.93 64.9846C143.328 64.7536 143.975 64.7536 144.376 64.9846L145.932 65.8829C146.333 66.1139 146.335 66.4899 145.937 66.7209C145.539 66.9519 144.89 66.9519 144.49 66.7209L142.933 65.8226ZM146.261 65.6926L144.704 64.7942C144.122 64.4577 143.177 64.4588 142.599 64.7942C142.02 65.1308 142.023 65.6775 142.606 66.0141L144.162 66.9124C144.745 67.249 145.689 67.249 146.268 66.9124C146.846 66.577 146.843 66.0292 146.261 65.6926Z" fill="white"/>
<path d="M148.109 67.7843L146.961 67.1215L146.804 67.031C146.712 66.9788 146.565 66.9788 146.474 67.031C146.384 67.0832 146.384 67.1691 146.474 67.2213L146.631 67.3119L147.779 67.9746C147.871 68.0268 148.018 68.0268 148.109 67.9746C148.199 67.9224 148.199 67.8365 148.109 67.7843Z" fill="white"/>
<path d="M150.853 63.5363C150.4 63.274 150.398 62.8492 150.849 62.5869C151.299 62.3246 152.034 62.3246 152.488 62.5869C152.941 62.8492 152.944 63.274 152.493 63.5363C152.043 63.7986 151.307 63.7986 150.853 63.5363ZM152.815 62.3965C152.18 62.0298 151.148 62.0298 150.518 62.3965C149.887 62.7633 149.89 63.361 150.525 63.7278C151.161 64.0945 152.192 64.0945 152.823 63.7278C153.454 63.361 153.451 62.7633 152.815 62.3965Z" fill="white"/>
<path d="M148.885 62.1784C148.862 62.1645 148.861 62.1424 148.885 62.1285L150.05 61.4507C150.073 61.4368 150.112 61.4368 150.136 61.4507L150.531 61.6782C150.622 61.7304 150.77 61.7304 150.86 61.6782L151.76 61.1559C152.094 60.9621 152.64 60.9621 152.975 61.1559L154.959 62.3003C155.295 62.4941 155.296 62.8098 154.962 63.0048L151.583 64.9686C151.25 65.1624 150.705 65.1624 150.368 64.9686L148.385 63.8242C148.049 63.6304 148.047 63.3147 148.381 63.1209L149.281 62.5986C149.371 62.5463 149.371 62.4605 149.281 62.4082L148.886 62.1807M155.286 62.1123L153.302 60.9679C152.785 60.6684 151.944 60.6684 151.429 60.9679L150.693 61.395L150.465 61.2627C150.259 61.1443 149.925 61.1443 149.721 61.2627L148.555 61.9405C148.351 62.0589 148.352 62.2527 148.558 62.3722L148.786 62.5046L148.05 62.9317C147.536 63.2311 147.539 63.7174 148.056 64.0169L150.04 65.1613C150.559 65.4607 151.399 65.4607 151.914 65.1613L155.293 63.1975C155.807 62.898 155.805 62.4117 155.286 62.1123Z" fill="white"/>
<path d="M138.894 71.8824C138.844 71.9033 138.782 71.9091 138.724 71.8975H138.72C138.73 71.8987 138.741 71.901 138.751 71.9021C138.804 71.908 138.855 71.8998 138.894 71.8824ZM138.915 71.872L138.894 71.8824C138.901 71.8789 138.908 71.8755 138.915 71.872ZM138.922 71.8685C138.922 71.8685 138.917 71.8708 138.915 71.872C138.917 71.8708 138.92 71.8697 138.922 71.8685ZM138.928 71.8639C138.928 71.8639 138.925 71.8662 138.923 71.8673C138.924 71.8673 138.927 71.865 138.928 71.8639ZM138.934 71.8592C138.934 71.8592 138.931 71.8615 138.93 71.8627C138.931 71.8627 138.932 71.8604 138.934 71.8592ZM138.939 71.8546C138.939 71.8546 138.937 71.8569 138.935 71.858C138.936 71.858 138.937 71.8557 138.939 71.8546ZM139.79 70.6336L138.908 70.9191L139.272 70.8019L138.935 71.2893L138.971 71.793C138.972 71.8151 138.961 71.8372 138.941 71.8557C138.948 71.8499 138.952 71.8441 138.958 71.8372L139.791 70.6347M139.563 70.4618C139.563 70.4618 139.555 70.4641 139.551 70.4653L139.017 70.6382L139.563 70.463" fill="white"/>
<path d="M138.556 70.7833L137.456 71.1385L137.215 71.3717L137.392 71.4066L138.542 71.0352L138.53 70.8599C138.53 70.8483 138.531 70.8367 138.537 70.8262L138.557 70.7833M139.585 68.6674L135.337 71.8511C135.282 71.8917 135.286 71.9497 135.344 71.988C135.346 71.9892 135.348 71.9915 135.352 71.9927C135.412 72.0275 135.504 72.0345 135.578 72.0101L136.959 71.5482L136.879 71.5319C136.851 71.5261 136.827 71.518 136.807 71.5064C136.789 71.4959 136.774 71.482 136.764 71.4669C136.745 71.4356 136.75 71.4019 136.779 71.3741L136.804 71.3508L136.212 71.5482L137.941 70.2529L139.573 68.6779C139.573 68.6779 139.581 68.6698 139.586 68.6663M139.596 68.6593C139.596 68.6593 139.594 68.6605 139.593 68.6616C139.594 68.6616 139.595 68.6605 139.596 68.6593ZM139.604 68.6547C139.604 68.6547 139.601 68.6558 139.6 68.657C139.601 68.657 139.603 68.6558 139.604 68.6547ZM139.616 68.6489C139.616 68.6489 139.61 68.6524 139.607 68.6535C139.61 68.6524 139.613 68.65 139.616 68.6489ZM139.624 68.6454C139.624 68.6454 139.621 68.6466 139.619 68.6477C139.621 68.6477 139.623 68.6465 139.624 68.6454ZM139.636 68.6407C139.636 68.6407 139.633 68.6407 139.632 68.6419C139.632 68.6419 139.635 68.6419 139.636 68.6407ZM139.913 68.7046C139.921 68.7232 139.922 68.7429 139.913 68.7615L139.736 69.1329L140.269 70.2308L139.564 70.4583L139.018 70.6347L138.907 70.868L138.91 70.9168L139.792 70.6313L140.579 70.3771C140.594 70.3724 140.608 70.3655 140.621 70.3597C140.668 70.333 140.687 70.2923 140.668 70.254L139.914 68.7046M139.914 68.7034C139.914 68.7034 139.914 68.7034 139.914 68.7046C139.914 68.7046 139.914 68.7046 139.914 68.7034Z" fill="white"/>
<path d="M137.457 71.1385L139.185 69.4706L138.558 70.7833L138.537 70.8263C138.532 70.8367 138.53 70.8483 138.53 70.8599L138.542 71.0352L138.585 71.6422L137.393 71.4066L137.216 71.3718L137.457 71.1385ZM139.862 68.657C139.846 68.6477 139.826 68.6396 139.804 68.635C139.75 68.6211 139.69 68.6234 139.642 68.6385C139.639 68.6385 139.636 68.6408 139.633 68.6408C139.633 68.6408 139.631 68.6408 139.63 68.6419C139.628 68.6419 139.624 68.6443 139.622 68.6454C139.621 68.6454 139.618 68.6466 139.617 68.6477C139.617 68.6477 139.615 68.6477 139.614 68.6489C139.61 68.6501 139.608 68.6524 139.604 68.6535C139.604 68.6535 139.603 68.6536 139.602 68.6547C139.601 68.6547 139.599 68.6559 139.597 68.657C139.596 68.657 139.595 68.6582 139.594 68.6594C139.593 68.6594 139.592 68.6605 139.591 68.6617C139.588 68.6628 139.586 68.6652 139.584 68.6663C139.579 68.6698 139.574 68.6733 139.571 68.6779L137.939 70.2529L136.802 71.3509L136.777 71.3741C136.748 71.402 136.742 71.4356 136.762 71.4669C136.771 71.482 136.786 71.4948 136.805 71.5064C136.825 71.518 136.85 71.5273 136.877 71.5319L136.957 71.5482L138.719 71.8964H138.722C138.78 71.9092 138.844 71.9022 138.893 71.8813L138.914 71.8709C138.916 71.8697 138.919 71.8685 138.921 71.8674C138.921 71.8674 138.922 71.8674 138.923 71.8662C138.924 71.8662 138.927 71.8639 138.928 71.8627C138.928 71.8627 138.929 71.8627 138.93 71.8616C138.931 71.8616 138.932 71.8592 138.934 71.8581C138.934 71.8581 138.934 71.8581 138.935 71.8581C138.936 71.8581 138.937 71.8558 138.939 71.8546C138.96 71.836 138.971 71.814 138.97 71.7919L138.934 71.2882L138.908 70.9191L138.905 70.8704L139.016 70.6371L139.733 69.1352L139.911 68.7638C139.92 68.7441 139.92 68.7244 139.911 68.7069C139.911 68.7069 139.911 68.7069 139.911 68.7058C139.903 68.6884 139.885 68.6721 139.863 68.6582" fill="white"/>
<path d="M23.8674 26.8716L21.0343 25.2362L20.6977 25.4312L23.5831 27.0967C23.9057 27.2836 23.8964 27.3625 23.7072 27.4716C23.6341 27.5146 23.5714 27.5447 23.5343 27.5598L23.8303 27.7304C23.8883 27.7095 23.9881 27.6573 24.0612 27.6144C24.5708 27.3184 24.2527 27.0921 23.8674 26.8692" fill="white"/>
<path d="M23.3811 25.7154C23.0747 25.5379 23.0051 25.3765 23.2407 25.2396C23.4774 25.1026 23.7723 25.163 24.0473 25.322L25.2254 26.0021C25.5852 26.2099 25.6119 26.3654 25.396 26.4907C25.165 26.6242 24.8644 26.5731 24.5592 26.3967L23.38 25.7166M25.5399 25.7897L24.3978 25.1305C23.9011 24.8438 23.3846 24.8066 22.9436 25.0631C22.5176 25.3104 22.5408 25.6214 23.0434 25.9116L24.2063 26.5824C24.7832 26.9155 25.2834 26.9062 25.6931 26.6683C26.1028 26.4304 26.126 26.1275 25.5399 25.7897Z" fill="white"/>
<path d="M28.0945 25.2244L26.0599 24.0499C25.6734 23.827 25.2509 23.7226 24.8575 23.9524C24.5952 24.1056 24.5696 24.2727 24.6543 24.4015L23.4009 23.6785L23.0701 23.8711L26.7598 26.0009L27.0905 25.8082L25.3252 24.7892C24.9178 24.5548 24.7495 24.3772 25.0536 24.1996C25.3217 24.0441 25.5747 24.1601 25.808 24.2948L27.7579 25.4206L28.0945 25.2256" fill="white"/>
<path d="M29.9318 24.1568L27.86 22.9602C27.3679 22.6758 26.9733 22.7222 26.6901 22.887C26.444 23.0298 26.3907 23.19 26.5183 23.3548C26.3918 23.2817 26.2967 23.2329 26.2282 23.205L25.9136 23.3884C26.0506 23.4615 26.1934 23.544 26.7319 23.855L28.5982 24.9321L28.929 24.7394L27.1741 23.7262C26.6298 23.4116 26.6646 23.2619 26.8955 23.1284C27.0998 23.0101 27.3273 23.0437 27.5861 23.1923L29.5952 24.3518L29.9318 24.1568Z" fill="white"/>
<path d="M28.2616 21.3793L28.4879 21.2481C28.9557 20.9765 29.2923 21.081 29.7205 21.3282L31.2421 22.2068C31.7284 22.4877 31.8619 22.6919 31.4209 22.9473L31.2004 23.0761L28.2616 21.3793ZM31.5102 21.9654L30.1094 21.1564C29.5708 20.8454 28.9998 20.6074 28.2442 21.0461L27.6302 21.4025L31.1609 23.4406L31.7435 23.1016C32.5258 22.6467 32.0546 22.2776 31.5102 21.9631" fill="white"/>
<path d="M31.3884 21.0625C31.082 20.8849 31.0123 20.7236 31.2491 20.5866C31.4859 20.4497 31.7807 20.51 32.0557 20.669L33.2338 21.3492C33.5936 21.5569 33.6203 21.7124 33.4044 21.8378C33.1734 21.9713 32.8728 21.9202 32.5676 21.7438L31.3884 21.0636M33.5495 21.1368L32.4074 20.4775C31.9107 20.1908 31.3942 20.1537 30.9531 20.4102C30.5272 20.6574 30.5504 20.9685 31.053 21.2586L32.2159 21.9295C32.7928 22.2626 33.293 22.2533 33.7015 22.0154C34.1112 21.7774 34.1356 21.4745 33.5495 21.1356" fill="white"/>
<path d="M33.1317 20.0923C32.8357 19.9217 32.6663 19.751 32.9344 19.5955C33.2234 19.4284 33.5344 19.5653 33.7828 19.7081L34.1322 19.9101L33.4764 20.2907L33.1328 20.0923M34.7334 19.8857L34.131 19.5375C33.6714 19.2717 33.1491 19.1336 32.6489 19.4237C32.1289 19.7255 32.4063 20.0551 32.8241 20.2966L33.849 20.8885C34.3933 21.203 34.8785 21.3318 35.4089 21.0231C35.9753 20.6935 35.5888 20.3848 35.2719 20.2025L35.251 20.1909L34.926 20.3801L34.9469 20.3917C35.222 20.5507 35.381 20.7028 35.1175 20.856C34.839 21.0173 34.4862 20.8746 34.2064 20.7132L33.7573 20.4544L34.7334 19.8868" fill="white"/>
<path d="M46.3618 14.2217L45.5842 13.7726L44.6255 13.9281C44.542 13.942 44.463 13.9258 44.4096 13.8956C44.3562 13.8643 44.3296 13.819 44.3528 13.7702L44.6186 13.2143L43.8409 12.7651C43.733 12.7036 43.5589 12.7036 43.4521 12.7651L40.2522 14.6245C40.1443 14.6872 40.1454 14.7881 40.2522 14.8496L42.7743 16.3051C42.8822 16.3678 43.0563 16.3678 43.1643 16.3051L46.3642 14.4457C46.4721 14.3831 46.4709 14.2821 46.363 14.2194" fill="white"/>
<path d="M46.6543 13.4011L45.2569 12.5944C45.1374 12.5248 44.9331 12.5561 44.8878 12.6501L44.6174 13.2154L44.3516 13.7713C44.3284 13.8189 44.3551 13.8653 44.4085 13.8967C44.4619 13.928 44.542 13.9431 44.6244 13.9291L45.5831 13.7736L46.5568 13.6158C46.7205 13.5902 46.7727 13.4719 46.652 13.4022" fill="white"/>
<path d="M58.2979 6.88065C58.1331 6.78548 57.865 6.78432 57.7002 6.88065L55.4752 8.17361C55.3116 8.26878 55.3116 8.42431 55.4776 8.52064C55.6435 8.61698 55.9128 8.61698 56.0764 8.52064L58.3014 7.22769C58.4662 7.13135 58.465 6.97699 58.2991 6.88065" fill="white"/>
<path d="M54.9819 8.80737C54.8125 8.70988 54.5409 8.70988 54.3726 8.80737C54.2043 8.90487 54.2055 9.06271 54.3738 9.16021C54.5432 9.2577 54.816 9.2577 54.9842 9.16021C55.1525 9.06271 55.1514 8.90487 54.9819 8.80737Z" fill="white"/>
<path d="M57.0815 6.17723C56.9155 6.0809 56.6486 6.0809 56.4838 6.17723L54.2588 7.47019C54.0952 7.56536 54.0952 7.72089 54.2612 7.81722C54.4271 7.91355 54.6952 7.91239 54.8589 7.81722L57.0838 6.52426C57.2486 6.42793 57.2475 6.27356 57.0815 6.17723Z" fill="white"/>
<path d="M53.7644 8.1051C53.595 8.00761 53.3222 8.00761 53.1539 8.1051C52.9856 8.2026 52.9868 8.36045 53.1562 8.45794C53.3257 8.55543 53.5984 8.55543 53.7667 8.45794C53.935 8.36045 53.9339 8.2026 53.7644 8.1051Z" fill="white"/>
<path d="M55.864 5.47508C55.698 5.37875 55.4311 5.37875 55.2663 5.47508L53.0413 6.76804C52.8777 6.86321 52.8777 7.01874 53.0437 7.11507C53.2096 7.21141 53.4777 7.21024 53.6414 7.11507L55.8663 5.82212C56.0311 5.72578 56.03 5.57142 55.864 5.47508Z" fill="white"/>
<path d="M52.5481 7.40295C52.3786 7.30546 52.1059 7.30546 51.9376 7.40295C51.7693 7.50045 51.7704 7.6583 51.9399 7.75579C52.1093 7.85328 52.3821 7.85328 52.5504 7.75579C52.7187 7.6583 52.7175 7.50045 52.5481 7.40295Z" fill="white"/>
<path d="M39.918 17.6942C39.8936 17.6803 39.8623 17.6698 39.8251 17.6652L39.0022 17.5607C38.8038 17.5352 38.6076 17.6083 38.5647 17.7232L38.5229 17.8335C38.502 17.8892 38.4057 17.9252 38.3093 17.9124L37.0164 17.7476C36.9827 17.7429 36.9525 17.7325 36.9293 17.7197C36.8875 17.6953 36.8666 17.6594 36.8806 17.6234L36.9223 17.5131C36.9502 17.4388 36.9084 17.3657 36.8225 17.317C36.7749 17.2891 36.7123 17.2694 36.6415 17.2601L35.8197 17.1545C35.7176 17.1417 35.6178 17.1789 35.5957 17.2381L35.5911 17.2497C35.5876 17.2589 35.5853 17.2682 35.5818 17.2775C35.5783 17.2856 35.5748 17.2949 35.5714 17.3031C35.5098 17.4667 35.5679 17.6292 35.7141 17.7603C35.7559 17.7975 35.8035 17.8323 35.858 17.8636C35.995 17.9426 36.1714 18.0006 36.3734 18.0273L38.697 18.3244C38.9709 18.3592 39.2506 18.3302 39.4874 18.2432C39.723 18.1561 39.8855 18.0203 39.9458 17.8625C39.9493 17.8544 39.9505 17.8462 39.9539 17.8369C39.9574 17.83 39.9609 17.8219 39.9632 17.8149L39.9702 17.7975C39.9841 17.7592 39.9621 17.722 39.9191 17.6965" fill="white"/>
</g>
<defs>
<linearGradient id="paint0_linear_49_863" x1="3.50974" y1="33.6706" x2="0.921509" y2="33.6706" gradientUnits="userSpaceOnUse">
<stop/>
<stop offset="1" stop-color="white"/>
</linearGradient>
<linearGradient id="paint1_linear_49_863" x1="164.513" y1="69.5554" x2="160.152" y2="70.1892" gradientUnits="userSpaceOnUse">
<stop stop-color="white"/>
<stop offset="0.68"/>
</linearGradient>
<linearGradient id="paint2_linear_49_863" x1="119.348" y1="96.2666" x2="106.817" y2="96.2666" gradientUnits="userSpaceOnUse">
<stop/>
<stop offset="0.49" stop-color="white"/>
<stop offset="1"/>
</linearGradient>
<linearGradient id="paint3_linear_49_863" x1="25.9519" y1="46.2102" x2="17.7601" y2="46.2102" gradientUnits="userSpaceOnUse">
<stop stop-color="#1D1D1E"/>
<stop offset="0.57" stop-color="#A7A9AC"/>
</linearGradient>
<linearGradient id="paint4_linear_49_863" x1="36.327" y1="52.2398" x2="27.773" y2="52.2398" gradientUnits="userSpaceOnUse">
<stop stop-color="#1D1D1E"/>
<stop offset="0.57" stop-color="#A7A9AC"/>
</linearGradient>
<linearGradient id="paint5_linear_49_863" x1="-5.73129" y1="17.222" x2="161.515" y2="74.0285" gradientUnits="userSpaceOnUse">
<stop stop-color="#00336B"/>
<stop offset="1" stop-color="#001A36"/>
</linearGradient>
</defs>
</svg>
