<svg width="158" height="150" viewBox="0 0 158 150" fill="none" xmlns="http://www.w3.org/2000/svg">
<path fill-rule="evenodd" clip-rule="evenodd" d="M75.5273 150C34.1682 149.997 0.529541 116.356 0.529541 75.0035C0.529541 33.6489 34.1714 0 75.5331 0C116.895 0 150.537 33.6418 150.537 75.0035C150.537 91.5814 145.054 107.638 135.014 120.7H154.283C156.047 120.7 157.47 122.131 157.47 123.887C157.47 125.643 156.04 127.074 154.283 127.074H127.568C125.897 127.074 124.501 125.778 124.388 124.107L122.511 97.009C122.391 95.2525 123.715 93.7298 125.472 93.6094C127.235 93.489 128.751 94.8134 128.871 96.5698L130.248 116.438C139.251 104.557 144.162 90.0181 144.162 75.0035C144.162 37.1618 113.375 6.38132 75.5402 6.38132C37.7055 6.38132 6.90378 37.1618 6.90378 75.0035C6.90378 112.845 37.6914 143.626 75.526 143.626C77.2895 143.626 78.7131 145.056 78.7131 146.813C78.7131 148.569 77.2832 149.999 75.5273 150ZM75.5273 150C75.5269 150 75.5264 150 75.526 150H75.5331C75.5312 150 75.5292 150 75.5273 150ZM48.6581 59.8468V63.2785H57.0282V61.0186C57.0282 59.1772 57.0282 57.5868 57.7815 56.2476C58.3675 55.2432 59.4556 54.2387 61.4644 54.2387C63.2222 54.2387 64.2266 54.9921 64.7288 55.578C65.4821 56.4987 65.9843 57.9216 65.9843 59.8468V61.1023C65.9843 62.5252 65.6495 64.8689 65.3147 66.1244C64.9799 67.3799 64.0592 69.3051 63.4733 70.4769L48.6581 97.7637V105.464H74.3545V97.5126H58.2838L71.5086 72.6531C71.6302 72.4371 71.7473 72.2363 71.8615 72.0406C72.4553 71.0229 72.9694 70.142 73.6012 67.9658C74.2708 65.8733 74.3545 64.6178 74.3545 62.6089V59.512C74.3545 55.6617 73.1827 52.3136 71.3412 50.0537C68.7465 46.873 65.3984 46.036 61.6318 46.036C58.8697 46.036 55.1868 46.4545 52.2572 49.4677C50.3321 51.4766 48.6581 54.6573 48.6581 59.8468ZM99.6743 46.873H91.4715L78.9999 89.3935V96.4244H95.5729V105.464H103.943V96.4244H107.961V88.8913H103.943V72.2346H95.5729V88.8076H87.4538L99.6743 46.873Z" fill="url(#paint0_linear_49_855)"/>
<defs>
<linearGradient id="paint0_linear_49_855" x1="10.9923" y1="-7.3239" x2="175.257" y2="150.663" gradientUnits="userSpaceOnUse">
<stop stop-color="#DB00FF"/>
<stop offset="1" stop-color="#02E1FF"/>
</linearGradient>
</defs>
</svg>
