<svg width="61" height="60" viewBox="0 0 61 60" fill="none" xmlns="http://www.w3.org/2000/svg">
<rect x="0.21109" width="60" height="60" rx="30" fill="white"/>
<g clip-path="url(#clip0_132_482)">
<path d="M37.4557 35.2753C39.2356 35.1361 40.9732 34.6627 42.5777 33.8799L46.9577 34.8933C47.1704 34.9417 47.3917 34.9375 47.6023 34.8809C47.813 34.8243 48.0066 34.717 48.1663 34.5685C48.326 34.4199 48.447 34.2346 48.5187 34.0286C48.5904 33.8226 48.6107 33.6022 48.5777 33.3866L47.9177 29.0799C48.977 27.3499 49.5398 25.3618 49.5444 23.3333C49.5444 16.7066 43.5777 11.3333 36.2111 11.3333C28.8444 11.3333 22.8777 16.7066 22.8777 23.3333C22.8778 23.7963 22.9078 24.2588 22.9677 24.7179L37.4557 35.2753Z" fill="#2FA8CC"/>
<path d="M24.2111 24.6667C16.8471 24.6667 10.8777 30.0394 10.8777 36.6667C10.8808 38.6962 11.4444 40.6854 12.5064 42.4147L11.8437 46.7227C11.8106 46.938 11.8307 47.158 11.9023 47.3637C11.9739 47.5693 12.0947 47.7543 12.2542 47.9025C12.4138 48.0507 12.6072 48.1575 12.8176 48.2137C13.028 48.2699 13.2489 48.2737 13.4611 48.2248L17.8451 47.2127C19.8284 48.1765 22.006 48.6739 24.2111 48.6667C31.5751 48.6667 37.5444 43.2941 37.5444 36.6667C37.5444 30.0394 31.5751 24.6667 24.2111 24.6667Z" fill="#FF5364"/>
<path d="M24.2111 38.6667C25.3157 38.6667 26.2111 37.7713 26.2111 36.6667C26.2111 35.5622 25.3157 34.6667 24.2111 34.6667C23.1065 34.6667 22.2111 35.5622 22.2111 36.6667C22.2111 37.7713 23.1065 38.6667 24.2111 38.6667Z" fill="#ECF0F1"/>
<path d="M30.8777 38.6667C31.9823 38.6667 32.8777 37.7713 32.8777 36.6667C32.8777 35.5622 31.9823 34.6667 30.8777 34.6667C29.7732 34.6667 28.8777 35.5622 28.8777 36.6667C28.8777 37.7713 29.7732 38.6667 30.8777 38.6667Z" fill="#ECF0F1"/>
<path d="M17.5444 38.6667C18.649 38.6667 19.5444 37.7713 19.5444 36.6667C19.5444 35.5622 18.649 34.6667 17.5444 34.6667C16.4399 34.6667 15.5444 35.5622 15.5444 36.6667C15.5444 37.7713 16.4399 38.6667 17.5444 38.6667Z" fill="#ECF0F1"/>
<path d="M36.2111 25.3333C37.3157 25.3333 38.2111 24.4378 38.2111 23.3333C38.2111 22.2287 37.3157 21.3333 36.2111 21.3333C35.1065 21.3333 34.2111 22.2287 34.2111 23.3333C34.2111 24.4378 35.1065 25.3333 36.2111 25.3333Z" fill="#ECF0F1"/>
<path d="M29.5444 25.3333C30.649 25.3333 31.5444 24.4378 31.5444 23.3333C31.5444 22.2287 30.649 21.3333 29.5444 21.3333C28.4399 21.3333 27.5444 22.2287 27.5444 23.3333C27.5444 24.4378 28.4399 25.3333 29.5444 25.3333Z" fill="#ECF0F1"/>
<path d="M42.8777 25.3333C43.9823 25.3333 44.8777 24.4378 44.8777 23.3333C44.8777 22.2287 43.9823 21.3333 42.8777 21.3333C41.7732 21.3333 40.8777 22.2287 40.8777 23.3333C40.8777 24.4378 41.7732 25.3333 42.8777 25.3333Z" fill="#ECF0F1"/>
<path d="M17.5444 20C17.7212 20 17.8908 19.9298 18.0158 19.8047C18.1408 19.6797 18.2111 19.5101 18.2111 19.3333V18.6667C18.2111 18.4899 18.1408 18.3203 18.0158 18.1953C17.8908 18.0702 17.7212 18 17.5444 18C17.3676 18 17.198 18.0702 17.073 18.1953C16.948 18.3203 16.8777 18.4899 16.8777 18.6667V19.3333C16.8777 19.5101 16.948 19.6797 17.073 19.8047C17.198 19.9298 17.3676 20 17.5444 20Z" fill="#F0C419"/>
<path d="M19.5444 20H18.8778C18.7009 20 18.5314 20.0702 18.4064 20.1953C18.2813 20.3203 18.2111 20.4899 18.2111 20.6667C18.2111 20.8435 18.2813 21.013 18.4064 21.1381C18.5314 21.2631 18.7009 21.3333 18.8778 21.3333H19.5444C19.7212 21.3333 19.8908 21.2631 20.0158 21.1381C20.1409 21.013 20.2111 20.8435 20.2111 20.6667C20.2111 20.4899 20.1409 20.3203 20.0158 20.1953C19.8908 20.0702 19.7212 20 19.5444 20Z" fill="#F0C419"/>
<path d="M17.5444 21.3335C17.3676 21.3335 17.198 21.4037 17.073 21.5288C16.948 21.6538 16.8777 21.8234 16.8777 22.0002V22.6668C16.8777 22.8436 16.948 23.0132 17.073 23.1382C17.198 23.2633 17.3676 23.3335 17.5444 23.3335C17.7212 23.3335 17.8908 23.2633 18.0158 23.1382C18.1408 23.0132 18.2111 22.8436 18.2111 22.6668V22.0002C18.2111 21.8234 18.1408 21.6538 18.0158 21.5288C17.8908 21.4037 17.7212 21.3335 17.5444 21.3335Z" fill="#F0C419"/>
<path d="M16.2111 20H15.5444C15.3676 20 15.198 20.0702 15.073 20.1953C14.948 20.3203 14.8777 20.4899 14.8777 20.6667C14.8777 20.8435 14.948 21.013 15.073 21.1381C15.198 21.2631 15.3676 21.3333 15.5444 21.3333H16.2111C16.3879 21.3333 16.5575 21.2631 16.6825 21.1381C16.8075 21.013 16.8777 20.8435 16.8777 20.6667C16.8777 20.4899 16.8075 20.3203 16.6825 20.1953C16.5575 20.0702 16.3879 20 16.2111 20Z" fill="#F0C419"/>
<path d="M21.5444 12.6667C21.7212 12.6667 21.8908 12.5965 22.0158 12.4715C22.1408 12.3465 22.2111 12.1769 22.2111 12.0001V11.3334C22.2111 11.1566 22.1408 10.987 22.0158 10.862C21.8908 10.737 21.7212 10.6667 21.5444 10.6667C21.3676 10.6667 21.198 10.737 21.073 10.862C20.948 10.987 20.8777 11.1566 20.8777 11.3334V12.0001C20.8777 12.1769 20.948 12.3465 21.073 12.4715C21.198 12.5965 21.3676 12.6667 21.5444 12.6667Z" fill="#F0C419"/>
<path d="M23.5444 12.6667H22.8778C22.7009 12.6667 22.5314 12.737 22.4064 12.862C22.2813 12.987 22.2111 13.1566 22.2111 13.3334C22.2111 13.5102 22.2813 13.6798 22.4064 13.8048C22.5314 13.9298 22.7009 14.0001 22.8778 14.0001H23.5444C23.7212 14.0001 23.8908 13.9298 24.0158 13.8048C24.1409 13.6798 24.2111 13.5102 24.2111 13.3334C24.2111 13.1566 24.1409 12.987 24.0158 12.862C23.8908 12.737 23.7212 12.6667 23.5444 12.6667Z" fill="#F0C419"/>
<path d="M21.5444 14C21.3676 14 21.198 14.0702 21.073 14.1953C20.948 14.3203 20.8777 14.4899 20.8777 14.6667V15.3333C20.8777 15.5101 20.948 15.6797 21.073 15.8047C21.198 15.9298 21.3676 16 21.5444 16C21.7212 16 21.8908 15.9298 22.0158 15.8047C22.1408 15.6797 22.2111 15.5101 22.2111 15.3333V14.6667C22.2111 14.4899 22.1408 14.3203 22.0158 14.1953C21.8908 14.0702 21.7212 14 21.5444 14Z" fill="#F0C419"/>
<path d="M20.2111 12.6667H19.5444C19.3676 12.6667 19.198 12.737 19.073 12.862C18.948 12.987 18.8777 13.1566 18.8777 13.3334C18.8777 13.5102 18.948 13.6798 19.073 13.8048C19.198 13.9298 19.3676 14.0001 19.5444 14.0001H20.2111C20.3879 14.0001 20.5575 13.9298 20.6825 13.8048C20.8075 13.6798 20.8777 13.5102 20.8777 13.3334C20.8777 13.1566 20.8075 12.987 20.6825 12.862C20.5575 12.737 20.3879 12.6667 20.2111 12.6667Z" fill="#F0C419"/>
<path d="M42.2111 38C42.3879 38 42.5575 37.9298 42.6825 37.8047C42.8075 37.6797 42.8777 37.5101 42.8777 37.3333V36.6667C42.8777 36.4899 42.8075 36.3203 42.6825 36.1953C42.5575 36.0702 42.3879 36 42.2111 36C42.0343 36 41.8647 36.0702 41.7397 36.1953C41.6146 36.3203 41.5444 36.4899 41.5444 36.6667V37.3333C41.5444 37.5101 41.6146 37.6797 41.7397 37.8047C41.8647 37.9298 42.0343 38 42.2111 38Z" fill="#F0C419"/>
<path d="M44.2111 38H43.5444C43.3676 38 43.198 38.0702 43.073 38.1953C42.948 38.3203 42.8777 38.4899 42.8777 38.6667C42.8777 38.8435 42.948 39.013 43.073 39.1381C43.198 39.2631 43.3676 39.3333 43.5444 39.3333H44.2111C44.3879 39.3333 44.5575 39.2631 44.6825 39.1381C44.8075 39.013 44.8777 38.8435 44.8777 38.6667C44.8777 38.4899 44.8075 38.3203 44.6825 38.1953C44.5575 38.0702 44.3879 38 44.2111 38Z" fill="#F0C419"/>
<path d="M42.2111 39.3335C42.0343 39.3335 41.8647 39.4037 41.7397 39.5288C41.6146 39.6538 41.5444 39.8234 41.5444 40.0002V40.6668C41.5444 40.8436 41.6146 41.0132 41.7397 41.1382C41.8647 41.2633 42.0343 41.3335 42.2111 41.3335C42.3879 41.3335 42.5575 41.2633 42.6825 41.1382C42.8075 41.0132 42.8777 40.8436 42.8777 40.6668V40.0002C42.8777 39.8234 42.8075 39.6538 42.6825 39.5288C42.5575 39.4037 42.3879 39.3335 42.2111 39.3335Z" fill="#F0C419"/>
<path d="M40.2111 39.3333H40.8777C41.0545 39.3333 41.2241 39.2631 41.3491 39.1381C41.4742 39.013 41.5444 38.8435 41.5444 38.6667C41.5444 38.4899 41.4742 38.3203 41.3491 38.1953C41.2241 38.0702 41.0545 38 40.8777 38H40.2111C40.0343 38 39.8647 38.0702 39.7397 38.1953C39.6146 38.3203 39.5444 38.4899 39.5444 38.6667C39.5444 38.8435 39.6146 39.013 39.7397 39.1381C39.8647 39.2631 40.0343 39.3333 40.2111 39.3333Z" fill="#F0C419"/>
<path d="M41.3491 42.8619C41.2241 42.737 41.0545 42.6667 40.8778 42.6667C40.701 42.6667 40.5314 42.737 40.4064 42.8619L40.2111 43.0573L40.0158 42.8619C39.89 42.7405 39.7216 42.6733 39.5468 42.6748C39.372 42.6763 39.2048 42.7465 39.0812 42.8701C38.9576 42.9937 38.8875 43.1609 38.886 43.3357C38.8845 43.5105 38.9517 43.6789 39.0731 43.8046L39.2684 43.9999L39.0731 44.1953C39.0094 44.2568 38.9586 44.3303 38.9237 44.4117C38.8888 44.493 38.8704 44.5805 38.8696 44.669C38.8688 44.7575 38.8857 44.8453 38.9192 44.9272C38.9527 45.0092 39.0022 45.0836 39.0648 45.1462C39.1274 45.2088 39.2019 45.2583 39.2838 45.2918C39.3657 45.3253 39.4535 45.3422 39.542 45.3414C39.6305 45.3407 39.718 45.3223 39.7994 45.2873C39.8807 45.2524 39.9543 45.2016 40.0158 45.1379L40.2111 44.9426L40.4064 45.1379C40.5322 45.2594 40.7006 45.3266 40.8754 45.3251C41.0502 45.3235 41.2174 45.2534 41.341 45.1298C41.4646 45.0062 41.5347 44.839 41.5362 44.6642C41.5377 44.4894 41.4705 44.321 41.3491 44.1953L41.1538 43.9999L41.3491 43.8046C41.4741 43.6796 41.5443 43.51 41.5443 43.3333C41.5443 43.1565 41.4741 42.987 41.3491 42.8619Z" fill="#F29C1F"/>
<path d="M15.0731 16.4714C15.1988 16.5929 15.3672 16.6601 15.542 16.6586C15.7168 16.657 15.884 16.5869 16.0076 16.4633C16.1312 16.3397 16.2013 16.1725 16.2029 15.9977C16.2044 15.8229 16.1372 15.6545 16.0157 15.5288L15.8204 15.3334L16.0157 15.1381C16.1372 15.0124 16.2044 14.844 16.2029 14.6692C16.2013 14.4944 16.1312 14.3272 16.0076 14.2036C15.884 14.08 15.7168 14.0098 15.542 14.0083C15.3672 14.0068 15.1988 14.074 15.0731 14.1954L14.8777 14.3908L14.6824 14.1954C14.5567 14.074 14.3883 14.0068 14.2135 14.0083C14.0387 14.0098 13.8715 14.08 13.7479 14.2036C13.6243 14.3272 13.5542 14.4944 13.5526 14.6692C13.5511 14.844 13.6183 15.0124 13.7397 15.1381L13.9351 15.3334L13.7397 15.5288C13.6761 15.5903 13.6253 15.6638 13.5903 15.7452C13.5554 15.8265 13.537 15.914 13.5362 16.0025C13.5355 16.091 13.5523 16.1788 13.5859 16.2607C13.6194 16.3427 13.6689 16.4171 13.7315 16.4797C13.7941 16.5423 13.8685 16.5918 13.9504 16.6253C14.0324 16.6588 14.1202 16.6757 14.2087 16.6749C14.2972 16.6742 14.3847 16.6558 14.466 16.6208C14.5474 16.5859 14.6209 16.5351 14.6824 16.4714L14.8777 16.2761L15.0731 16.4714Z" fill="#F29C1F"/>
</g>
<defs>
<clipPath id="clip0_132_482">
<rect width="40" height="40" fill="white" transform="translate(10.2111 10)"/>
</clipPath>
</defs>
</svg>
