<svg width="61" height="60" viewBox="0 0 61 60" fill="none" xmlns="http://www.w3.org/2000/svg">
<g clip-path="url(#clip0_132_276)">
<path d="M60.2111 30C60.2111 39.0176 56.2314 47.107 49.9337 52.6055C44.6603 57.2098 37.7615 56.3702 30.2111 56.3702C22.6607 56.3702 15.7619 57.2098 10.4884 52.6055C4.19078 47.107 0.21109 39.0176 0.21109 30C0.21109 13.432 13.6431 0 30.2111 0C46.7791 0 60.2111 13.432 60.2111 30Z" fill="#52D68A"/>
<path d="M60.1933 28.9587L38.1811 6.94653L32.7549 17.434V51.6015L40.7054 56.2378C44.1194 55.8897 47.2388 54.9585 49.9337 52.6055C56.2314 47.107 60.2111 39.0176 60.2111 30C60.2111 29.6515 60.2051 29.3044 60.1933 28.9587Z" fill="#38A36B"/>
<path d="M41.1303 15.8155C40.8031 5.76117 34.1368 3.28125 30.2107 3.28125C26.2847 3.28125 19.6186 5.76117 19.2916 15.8155C18.9644 25.8702 15.9794 31.7709 15.9794 31.7709H44.4429C44.4429 31.7709 41.4575 25.8702 41.1303 15.8155Z" fill="#D1620F"/>
<path d="M44.4429 31.7709C44.4429 31.7709 41.4575 25.8702 41.1304 15.8155C40.8032 5.76152 34.1371 3.28137 30.2111 3.28125V31.7709H44.4429Z" fill="#A54300"/>
<path d="M35.5185 22.5249H24.9037V31.2905L30.2111 32.9384L35.5185 31.2905V22.5249Z" fill="#FFB985"/>
<path d="M35.5185 22.5249H30.2113V32.9383L35.5185 31.2905V22.5249Z" fill="#F9A267"/>
<path d="M35.5185 30.801H24.9037V39.5666L30.2111 41.2145L35.5185 39.5666V30.801Z" fill="#FFD3AB"/>
<path d="M35.5185 30.801H30.2113V41.2144L35.5185 39.5666V30.801Z" fill="#FFB985"/>
<path d="M30.2111 7.63086C26.7749 7.63086 22.714 9.48617 22.3834 14.5065C21.4949 14.6784 20.8636 15.8438 20.963 16.7861L21.1153 18.9305C21.2196 19.9201 22.0894 20.6425 23.048 20.535L23.2133 20.517C23.8845 22.317 24.6851 23.5672 25.5264 24.4443C27.1487 26.1368 28.9234 26.4446 30.2111 26.6483C31.4987 26.4447 33.6472 7.63086 30.2111 7.63086Z" fill="#FFD3AB"/>
<path d="M34.8958 24.4443C35.737 23.5672 36.5377 22.317 37.2088 20.517L37.3742 20.535C38.3327 20.6425 39.2026 19.9201 39.3068 18.9305L39.4592 16.7861C39.5585 15.8438 38.9274 14.6783 38.0387 14.5065C37.708 9.48629 33.6475 7.63098 30.2113 7.63086V26.6483C31.499 26.4446 33.2735 26.1366 34.8958 24.4443Z" fill="#FFB985"/>
<path d="M33.5665 6.81056C33.5665 6.81056 32.3202 6.07591 30.0353 6.19895C21.4214 6.66278 22.3834 14.5065 22.3834 14.5065C28.2046 15.5163 31.3214 12.8161 32.4113 11.5788C34.5308 15.05 38.0387 14.5065 38.0387 14.5065C38.5197 7.85681 33.5665 6.81056 33.5665 6.81056Z" fill="#D1620F"/>
<path d="M38.0387 14.5064C38.0387 14.5064 34.5307 15.0499 32.4113 11.5787C31.9915 12.0553 31.271 12.7488 30.2111 13.3638V6.19102L34.1249 5.37305L39.4079 10.2107L38.0387 14.5064Z" fill="#A54300"/>
<path d="M49.9337 36.0937V52.6054C44.6603 57.2097 37.7615 59.9999 30.2111 59.9999C22.6607 59.9999 15.7619 57.2097 10.4884 52.6054V36.0937C10.4884 33.1698 12.858 30.8003 15.7818 30.8003H19.7627L30.2111 36.0362L40.6595 30.8003H44.6404C47.5642 30.8003 49.9337 33.1698 49.9337 36.0937Z" fill="#545454"/>
<path d="M44.6404 30.8003H40.6595L30.2111 36.0362V59.9999C37.7615 59.9999 44.6603 57.2097 49.9337 52.6054V36.0937C49.9337 33.1698 47.5642 30.8003 44.6404 30.8003Z" fill="#383838"/>
<path d="M30.2111 36.0369L27.6677 51.6016H19.6805L25.6597 36.0369H30.2111Z" fill="#DDDDDD"/>
<path d="M30.2114 36.0369L32.7547 51.6016H40.742L34.7628 36.0369H30.2114Z" fill="#DDDDDD"/>
<path d="M24.9037 30.8008H19.7624V38.9273L30.2111 36.0368L24.9037 30.8008Z" fill="white"/>
<path d="M35.5185 30.8008H40.6598V38.9273L30.2111 36.0368L35.5185 30.8008Z" fill="white"/>
</g>
<defs>
<clipPath id="clip0_132_276">
<rect width="60" height="60" fill="white" transform="translate(0.21109)"/>
</clipPath>
</defs>
</svg>
