<svg width="134" height="110" viewBox="0 0 134 110" fill="none" xmlns="http://www.w3.org/2000/svg">
<g style="mix-blend-mode:difference" clip-path="url(#clip0_49_867)">
<path d="M128.173 39.8946L128.152 39.8381L114.048 21.6639C114.695 20.8028 115.077 19.7353 115.077 18.5793C115.077 15.7242 112.743 13.4094 109.865 13.4094C108.286 13.4094 106.872 14.1053 105.916 15.2051L92.4168 8.86193L92.2572 8.7872L70.5534 4.61171C70.1642 2.00253 67.8966 0 65.1575 0C62.4185 0 59.9314 2.20124 59.7173 4.99622L37.6564 10.0268L26.249 13.3662C25.2673 11.8382 23.5441 10.8245 21.5819 10.8245C18.5277 10.8245 16.0516 13.2806 16.0516 16.3102C16.0516 17.3652 16.3521 18.3503 16.8725 19.1868L10.4982 26.4274L2.67467 32.3716L0.828125 48.1103L4.67309 61.9963C3.56272 62.9443 2.85912 64.349 2.85912 65.9162C2.85912 68.7713 5.19265 71.086 8.07098 71.086C9.2351 71.086 10.3096 70.7076 11.1769 70.0678L22.527 76.3355L33.8237 73.7259L42.9102 84.138L60.5145 83.8234L82.1303 110L84.4443 109.049L82.3111 87.7618C84.5648 88.7138 89.6972 91.0285 89.7547 91.0544L89.8646 91.1036L103.266 89.1096L118.463 79.8329L120.658 70.189L128.021 67.081L133.171 53.1154L128.173 39.8934L128.173 39.8946ZM102.984 70.2783C102.679 69.155 102.049 68.1642 101.199 67.4118L106.839 54.342C107.241 54.4095 107.653 54.4454 108.074 54.4454C109.027 54.4454 109.937 54.2649 110.773 53.9365L117.397 68.0972L102.984 70.2783H102.984ZM97.243 65.9162C93.96 65.9162 91.2983 68.5564 91.2983 71.8131C91.2983 71.891 91.3003 71.9686 91.3032 72.0461L73.5531 74.7324L77.4315 62.0303C80.0989 61.8832 82.2471 59.8072 82.4817 57.1851L101.628 50.6375C102.238 51.7535 103.134 52.6925 104.219 53.3594L98.7207 66.1003C98.2484 65.9804 97.7532 65.9166 97.2434 65.9166L97.243 65.9162ZM42.3357 33.7428C40.9533 33.7428 39.6512 34.0809 38.507 34.6771L31.9649 26.8451L51.3034 24.9629L45.3553 34.3091C44.42 33.944 43.4017 33.7433 42.3357 33.7433V33.7428ZM47.7475 35.7518L54.4981 25.1443L81.3518 39.607L77.7478 51.4114C77.5447 51.3883 77.3378 51.3758 77.1281 51.3758C74.1598 51.3758 71.7534 53.7629 71.7534 56.7073C71.7534 57.1075 71.7982 57.4973 71.8825 57.8721L60.9917 61.5965L48.7984 46.9984C49.9137 45.6033 50.5798 43.8395 50.5798 41.9206C50.5798 39.4584 49.4829 37.2507 47.7471 35.751L47.7475 35.7518ZM100.744 47.1757C100.744 47.4499 100.76 47.7201 100.79 47.9863L81.9833 54.418C81.6083 53.6368 81.0476 52.9607 80.3574 52.4453L84.2305 39.7593L98.9454 28.6529L104.611 40.7662C102.31 41.9921 100.744 44.4025 100.744 47.1753V47.1757ZM73.2094 60.3561C73.6309 60.8012 74.128 61.1748 74.6814 61.4559L70.9855 73.5615L62.9006 63.8817L73.2099 60.3561H73.2094ZM108.074 39.9055C107.817 39.9055 107.563 39.9189 107.313 39.9443L101.226 26.9319L106.775 22.7435C107.64 23.3756 108.708 23.7496 109.865 23.7496C110.563 23.7496 111.228 23.6135 111.836 23.3667L124.618 39.8373L114.314 43.3613C113.022 41.2877 110.711 39.9055 108.074 39.9055ZM104.726 17.7186C104.678 17.9985 104.653 18.2861 104.653 18.5797C104.653 19.2805 104.794 19.9481 105.049 20.5576L100.02 24.353L94.7169 13.016L104.726 17.719V17.7186ZM97.739 26.0744L85.6149 35.2252L92.0935 14.0052L97.739 26.0744ZM82.1804 36.8937L55.9961 22.7912L63.7308 10.6375C64.1856 10.7594 64.6636 10.8249 65.1575 10.8249C67.4707 10.8249 69.448 9.39669 70.2415 7.38083L90.0291 11.1876L82.1808 36.8937H82.1804ZM38.3372 12.7208L60.2254 7.7294C60.4962 8.29566 60.8635 8.80821 61.3056 9.24563L53.1963 21.9882L29.8097 24.2646L25.9623 19.6585C26.683 18.732 27.1118 17.5712 27.1118 16.3106C27.1118 16.21 27.1089 16.1103 27.1036 16.0113L38.3372 12.7216V12.7208ZM18.8986 21.1073C19.6934 21.5455 20.6084 21.7955 21.5819 21.7955C22.3507 21.7955 23.0824 21.64 23.7477 21.3589L26.4477 24.5913L14.8366 25.7214L18.8986 21.1073ZM11.9949 28.7882L28.6029 27.1718L36.2838 36.3678C34.923 37.8263 34.0912 39.7771 34.0912 41.921C34.0912 43.0951 34.3412 44.2111 34.7903 45.2204L22.121 54.1849L5.96221 33.3721L11.9949 28.7882ZM3.67185 47.895L4.98906 36.6695L19.8408 55.7981L11.2893 61.8489C10.4033 61.1578 9.28559 60.7459 8.07098 60.7459C7.79084 60.7459 7.516 60.7681 7.24767 60.8101L3.67144 47.8946L3.67185 47.895ZM22.9451 73.3875L12.9078 67.8448C13.1497 67.2486 13.2832 66.5975 13.2832 65.9157C13.2832 65.2719 13.1644 64.6556 12.9473 64.0869L21.5502 57.9998L31.8928 71.3207L22.9451 73.3879V73.3875ZM23.8307 56.3858L36.3408 47.5339C37.8441 49.1132 39.9741 50.0987 42.3361 50.0987C43.944 50.0987 45.4441 49.6419 46.712 48.8523L58.1643 62.5634L49.8432 65.4093C49.0985 64.3486 47.8603 63.6539 46.4584 63.6539C44.1818 63.6539 42.3361 65.4848 42.3361 67.743C42.3361 67.8205 42.3385 67.8977 42.3426 67.9744L34.8245 70.5456L23.8307 56.3862V56.3858ZM44.17 81.3378L36.7423 72.8268L43.4461 70.5343C44.1985 71.3328 45.2694 71.832 46.4584 71.832C48.614 71.832 50.3827 70.191 50.5647 68.0996L60.0727 64.8478L69.437 76.0588L60.78 81.0409L44.17 81.3378ZM63.2931 82.8051L71.2969 78.1991C72.1084 79.0784 73.4863 80.5635 74.8829 82.0361C76.1725 83.3965 77.2287 84.4825 78.0215 85.2649C78.6277 85.8635 79.0545 86.2613 79.3753 86.5271L81.1722 104.456L63.2939 82.8051H63.2931ZM89.3503 87.8119C88.5164 87.4334 87.3983 86.9293 86.2627 86.4293C82.7223 84.8691 81.6343 84.491 81.149 84.384C80.3314 83.7038 77.6228 80.9189 74.3715 77.4175L92.08 74.7377C92.5687 75.5847 93.2633 76.2996 94.096 76.8161L89.3507 87.8123L89.3503 87.8119ZM115.992 78.0816L102.286 86.4479L92.3459 87.927L96.7634 77.6906C96.9218 77.7031 97.0818 77.7096 97.243 77.7096C100.089 77.7096 102.467 75.726 103.05 73.0769L117.634 70.87L115.992 78.0812V78.0816ZM125.809 64.9981L120.15 67.3867L113.149 52.4199C114.538 51.0967 115.403 49.2364 115.403 47.1753C115.403 46.7613 115.368 46.3558 115.301 45.9608L126.083 42.2732L130.186 53.1283L125.809 64.9977V64.9981Z" fill="url(#paint0_linear_49_867)"/>
</g>
<defs>
<linearGradient id="paint0_linear_49_867" x1="27.4428" y1="84.2087" x2="103.731" y2="11.5375" gradientUnits="userSpaceOnUse">
<stop stop-color="#FED528"/>
<stop offset="0.51" stop-color="#EF48B8"/>
<stop offset="1" stop-color="#1FBAEA"/>
</linearGradient>
<clipPath id="clip0_49_867">
<rect width="132.344" height="110" fill="white" transform="translate(0.828125)"/>
</clipPath>
</defs>
</svg>
