<svg width="59" height="60" viewBox="0 0 59 60" fill="none" xmlns="http://www.w3.org/2000/svg">
<path d="M55.3932 43.7078C57.1991 39.9493 58.2111 35.7374 58.2111 31.2888C58.2112 15.4321 45.3567 2.57764 29.5 2.57764C13.6432 2.57764 0.788818 15.4321 0.788818 31.2888C0.788818 35.7374 1.80085 39.9495 3.60671 43.7078H55.3932Z" fill="#FEF156"/>
<path d="M35.7516 30.0825C35.1122 30.8272 34.4412 31.4502 33.7999 31.9481C32.6634 32.8308 31.2846 33.3446 29.8495 33.4303C29.7643 34.4513 29.3863 37.1392 27.7261 39.0811C27.823 39.3994 27.8457 39.7362 27.7929 40.0643H31.2072C31.1025 39.4151 31.2929 38.7314 31.7719 38.2255L36.2885 33.4552C36.2906 33.4522 36.293 33.4496 36.2951 33.4466C35.9167 32.3388 35.7859 31.0796 35.7516 30.0825Z" fill="#FFAA7B"/>
<path d="M25.2001 31.9481C24.5589 31.4502 23.8879 30.8272 23.2485 30.0825C23.2141 31.0796 23.0835 32.3388 22.7051 33.4465C22.7072 33.4494 22.7096 33.452 22.7118 33.4551L27.2284 38.2254C27.5167 38.53 27.6997 38.8991 27.7774 39.2863C29.603 37.323 30.0001 34.4569 30.0854 33.4132C29.8914 33.4313 29.6961 33.4415 29.5001 33.4436C27.9401 33.4265 26.4287 32.9023 25.2001 31.9481Z" fill="#FC9460"/>
<path d="M27.3682 41.0466L25.3721 43.6245V43.7552L29.6572 47.8443L33.5723 43.5527L31.6318 41.0465C31.3774 40.7179 31.2321 40.3363 31.191 39.947H27.8092C27.7679 40.3364 27.6226 40.718 27.3682 41.0466Z" fill="#E51E82"/>
<path d="M28.674 0.015459C27.4902 1.11351 25.4293 3.65894 27.3411 6.82734C27.3827 6.89625 27.4228 6.96609 27.4615 7.03652C27.6816 7.09746 27.8902 7.16168 28.0833 7.22589C29.0022 7.53152 29.9977 7.53152 30.9165 7.22589C32.3315 6.75539 34.5503 6.28406 36.3591 7.09793C38.4881 8.05593 38.3098 10.9864 38.1922 12.6082C38.1513 13.1721 38.2854 13.7375 38.5902 14.2157C38.7701 14.4979 38.9129 14.7973 39.0263 15.0928C39.167 15.4602 39.2672 16.0812 39.3292 16.4666C39.656 16.3083 40.3644 16.1358 40.764 16.1923C40.8129 14.4969 40.9695 12.4279 40.9695 12.4279C42.7368 3.77273 35.2576 -0.284307 28.674 0.015459Z" fill="#543E5B"/>
<path d="M27.5756 6.8274C25.6588 3.65091 27.7352 1.10044 28.9175 0.00708008C28.3996 0.0221973 27.8863 0.0633301 27.3829 0.132002C21.0253 0.998253 20.4211 4.60283 20.4182 5.92529C20.4176 6.20267 20.264 6.45966 20.0146 6.58107C16.7076 8.18982 18.4906 16.1847 18.4906 16.1847C18.8227 16.2069 19.4117 16.3414 19.6709 16.4669C19.7344 16.0719 19.838 15.4414 19.9844 15.0655C20.096 14.7789 20.2354 14.4895 20.4097 14.2161C20.7121 13.7416 20.8498 13.1819 20.8087 12.6223C20.6899 11.0048 20.5058 8.05892 22.6408 7.09822C24.3086 6.34775 26.3247 6.69005 27.7381 7.11685C27.6863 7.01912 27.6328 6.92232 27.5756 6.8274Z" fill="#45314D"/>
<path d="M17.9408 35.8259L21.5676 33.16C22.0336 32.8825 22.6345 33.0111 22.946 33.4549L27.4625 38.2253C28.1983 39.0025 28.2579 40.2001 27.6026 41.0463L25.5053 43.7549L17.9408 35.8259Z" fill="#ADE9F7"/>
<path d="M41.0592 35.8259L37.4324 33.16C36.9666 32.8825 36.3655 33.0111 36.054 33.4549L31.5374 38.2253C30.8015 39.0025 30.742 40.2001 31.3973 41.0463L33.4946 43.7549L41.0592 35.8259Z" fill="#E8F8FC"/>
<path d="M41.4786 16.1713C40.9835 15.7174 39.8764 15.9474 39.45 16.2254C39.5434 16.8072 39.5488 17.4024 39.468 17.9901L38.9647 21.6555C38.9647 21.9509 38.9555 22.2409 38.9382 22.5258C40.1654 22.8959 40.8956 21.7942 40.9984 21.0382C41.0426 20.7127 41.1149 20.3919 41.2151 20.0789C41.5416 19.0593 42.7192 17.3082 41.4786 16.1713Z" fill="#FFAA7B"/>
<path d="M17.5215 16.1713C18.0167 15.7174 19.1237 15.9474 19.5501 16.2254C19.4567 16.8072 19.4514 17.4024 19.5321 17.9901L20.0354 21.6555C20.0354 21.9509 20.0448 22.2409 20.0619 22.5258C18.8347 22.8959 18.1044 21.7942 18.0017 21.0382C17.9576 20.7127 17.8853 20.3919 17.7851 20.0789C17.4585 19.0593 16.2808 17.3082 17.5215 16.1713Z" fill="#FC9460"/>
<path d="M7.53347 39.0435H7.41629C7.41629 39.0435 5.13687 40.5149 3.60675 43.7079C5.78761 48.2467 9.12758 52.1223 13.2418 54.9541C13.2418 52.7823 13.2418 50.5513 13.2418 48.519C13.2418 44.0218 10.0654 40.8544 7.53347 39.0435Z" fill="#45314D"/>
<path d="M13.0558 47.3969C13.0997 47.7615 13.1245 48.135 13.1245 48.5189V54.8728C16.0486 56.9071 19.3682 58.4122 22.9458 59.2477V42.3308C20.7452 42.631 15.0077 43.7502 13.0558 47.3969Z" fill="#FE3D97"/>
<path d="M10.501 37.9175C9.76329 38.0592 8.62786 38.3705 7.41614 39.0433C9.7879 40.7397 12.7247 43.6264 13.087 47.6811C14.9188 43.9653 20.6303 42.7925 22.9458 42.4644V40.574L17.9406 35.8259C14.3599 37.2131 10.501 37.9175 10.501 37.9175Z" fill="#E51E82"/>
<path d="M22.7884 40.4246V59.2093C24.9417 59.725 27.1887 60 29.5001 60C29.5527 60 29.6048 59.9983 29.6573 59.9981V47.8443C29.6573 47.2674 29.4204 46.7159 29.0018 46.3187L22.7884 40.4246Z" fill="#ADE9F7"/>
<path d="M51.5838 39.0435H51.4666C48.9345 40.8545 45.7582 44.0219 45.7582 48.519V54.9541C49.8725 52.1222 53.2124 48.2467 55.3933 43.7079C53.8632 40.5149 51.5838 39.0435 51.5838 39.0435Z" fill="#543E5B"/>
<path d="M48.499 37.9175C48.499 37.9175 44.6402 37.2131 41.0593 35.8259L36.0541 40.574V59.2477C39.6318 58.4123 42.9513 56.9072 45.8755 54.8729C45.8755 52.7266 45.8755 50.5258 45.8755 48.519C45.8755 44.0219 49.0518 40.8543 51.5838 39.0434C50.372 38.3705 49.2367 38.0592 48.499 37.9175Z" fill="#FD77A6"/>
<path d="M29.3428 47.8443V59.9981C29.3953 59.9983 29.4475 60 29.5001 60C31.8115 60 34.0585 59.725 36.2118 59.2093V40.4246L29.9985 46.3187C29.5798 46.7159 29.3428 47.2674 29.3428 47.8443Z" fill="#E8F8FC"/>
<path d="M38.8317 14.2159C38.527 13.7377 38.3929 13.1722 38.4337 12.6084C38.5513 10.9866 38.4882 7.81472 36.3592 6.85671C34.5505 6.04285 32.3318 6.51406 30.9168 6.98457C29.998 7.29019 29.0021 7.29019 28.0831 6.98457C27.8738 6.91496 27.6465 6.84546 27.4059 6.77996C27.1561 7.61457 27.0093 8.56367 27.0084 9.64472C26.9185 10.4825 26.9455 11.2824 26.984 11.8067C27.0222 12.3277 26.8905 12.8546 26.6129 13.2901C26.4451 13.5533 26.2967 13.8496 26.1717 14.1711C25.8058 15.1106 25.6875 16.153 25.8291 17.1855L26.3308 20.8393C26.3357 26.9304 30.0221 30.4503 31.6077 31.6816C32.1559 32.1074 32.7635 32.4503 33.4066 32.7034C33.568 32.598 33.7254 32.4861 33.8784 32.3673C36.2717 30.5088 39.0853 26.9263 39.0853 21.6556L39.5885 17.9902C39.7227 17.013 39.621 16.015 39.2676 15.093C39.1544 14.7975 39.0116 14.4982 38.8317 14.2159Z" fill="#FFC7AB"/>
<path d="M31.7189 31.5386C29.3256 29.6802 26.512 26.0976 26.512 20.827L26.0086 17.1608C25.8731 16.1739 25.9786 15.166 26.3404 14.2367C26.4519 13.9502 26.5913 13.6608 26.7656 13.3873C27.068 12.9128 27.2058 12.3531 27.1647 11.7936C27.1226 11.2211 27.1031 10.4519 27.1895 9.65443C27.1895 8.59014 27.33 7.65287 27.5756 6.8274C26.1731 6.42427 24.2459 6.13447 22.6409 6.8567C20.5058 7.8174 20.4485 11.0047 20.5673 12.6222C20.6085 13.1818 20.4708 13.7415 20.1683 14.216C19.9941 14.4895 19.8546 14.7788 19.7432 15.0653C19.3814 15.9946 19.2759 17.0026 19.4114 17.9894L19.9147 21.6556C19.9147 26.9264 22.7283 30.5088 25.1215 32.3673C26.3707 33.3373 27.9123 33.8642 29.5 33.8642C30.9667 33.8642 32.3937 33.4136 33.5876 32.5802C32.9196 32.3301 32.2886 31.981 31.7189 31.5386Z" fill="#FFAA7B"/>
<path d="M36.2759 25.8794C35.996 24.2106 34.7919 22.5395 33.1845 22.1751L30.7275 21.4532C30.3004 21.3278 29.8727 21.5468 29.7008 21.9189C29.6694 21.9868 29.5745 21.9868 29.5431 21.9189C29.3711 21.547 28.9434 21.3278 28.5163 21.4532L26.4084 22.0726C26.1946 22.3911 25.1692 24.1115 27.1341 25.2167C27.1397 25.2199 27.1452 25.2234 27.1509 25.2265C27.3597 25.1532 27.5733 25.0907 27.7923 25.0424L28.2312 24.9455C28.8708 24.8043 29.3654 24.1798 29.5468 23.5145C29.5676 23.4381 29.6762 23.4381 29.6971 23.5145C29.8785 24.1798 30.373 24.8043 31.0127 24.9455L31.4516 25.0424C32.713 25.3209 33.8182 26.0267 34.6 27.0133C34.4383 27.7328 33.9307 28.8262 32.3579 29.3819C31.7821 29.5853 31.1787 29.4785 30.7263 29.1624C30.3143 29.9116 29.2245 32.3705 31.8672 33.5924C31.9501 33.5551 32.033 33.5172 32.1145 33.4757C34.5734 32.2239 37.8424 30.0488 38.8881 24.4538C38.9741 23.9937 39.0177 23.5259 39.0177 23.0579C38.6194 24.0398 37.792 25.2216 36.2759 25.8794Z" fill="#543E5B"/>
<path d="M31.9277 33.5634C29.4267 32.3631 30.3862 30.0262 30.8149 29.221C30.3923 28.9623 30.0819 28.53 30.0157 27.9923C30.0139 27.9781 30.0123 27.9639 30.0106 27.9493C29.9885 27.7445 29.8169 27.587 29.6082 27.587C29.3995 27.587 29.2279 27.7444 29.2058 27.9493C29.2042 27.9637 29.2025 27.9781 29.2009 27.9923C29.0658 29.0908 27.9142 29.7545 26.8589 29.3817C25.4069 28.8687 24.7823 27.8971 24.5138 27.1847C25.1871 26.2638 26.1329 25.5668 27.2272 25.2C25.1702 24.0191 26.4676 22.1552 26.5598 22.0278L26.0592 22.1749C24.42 22.5466 23.1995 24.2769 22.9514 25.978C21.2743 25.3455 20.4013 24.091 19.9827 23.0574V23.0579C19.9827 23.5254 20.0263 23.9925 20.112 24.452C21.1557 30.0459 24.4091 32.2207 26.8681 33.474C28.4531 34.2819 30.3212 34.3103 31.9277 33.5634Z" fill="#45314D"/>
</svg>
