<svg width="61" height="60" viewBox="0 0 61 60" fill="none" xmlns="http://www.w3.org/2000/svg">
<rect x="0.21109" width="60" height="60" rx="30" fill="white"/>
<g clip-path="url(#clip0_132_481)">
<path d="M47.5444 38.6667V46.0001C47.5444 47.4727 46.3504 48.6667 44.8778 48.6667H36.2111V46.0001H44.2111C44.5791 46.0001 44.8778 45.7014 44.8778 45.3334V38.6667H47.5444Z" fill="#BCC7CE"/>
<path d="M15.5444 30.0001V24.0001C15.5444 18.1187 20.3297 13.3334 26.2111 13.3334H34.2111C40.0924 13.3334 44.8777 18.1187 44.8777 24.0001V30.0001H47.5444V24.0001C47.5444 16.6361 41.5751 10.6667 34.2111 10.6667H26.2111C18.8471 10.6667 12.8777 16.6361 12.8777 24.0001V30.0001H15.5444Z" fill="#BCC7CE"/>
<path d="M18.2111 26.4534V22.0001C18.2111 21.2667 18.8111 20.6667 19.5444 20.6667C19.9111 20.6667 20.2444 20.8134 20.4844 21.0601C20.7311 21.3001 20.8778 21.6334 20.8778 22.0001V24.6667L18.2111 26.4534Z" fill="#BCC7CE"/>
<path d="M39.5444 25.3334V22.0001C39.5444 21.6334 39.6911 21.3001 39.9377 21.0601C40.1777 20.8134 40.5111 20.6667 40.8777 20.6667C41.6111 20.6667 42.2111 21.2667 42.2111 22.0001V26.4534L39.5444 25.3334Z" fill="#BCC7CE"/>
<path d="M38.8778 42.6666H21.5444C18.9671 42.6666 16.8778 40.5773 16.8778 37.9999H15.5444V30.6666H16.8778C16.8778 26.6166 20.1611 23.3333 24.2111 23.3333H36.2111C40.2611 23.3333 43.5444 26.6166 43.5444 30.6666H44.8778V37.9999H43.5444C43.5444 40.5773 41.4551 42.6666 38.8778 42.6666Z" fill="#DCE4EA"/>
<path d="M40.8778 32.4447V37.3334C40.8778 38.8061 39.6838 40.0001 38.2111 40.0001H22.2111C20.7384 40.0001 19.5444 38.8061 19.5444 37.3334V32.4447C19.5444 29.7547 21.2464 27.4667 23.6331 26.5967C24.6244 26.2354 25.7224 26.4614 26.5884 27.0654C27.2464 27.5247 28.3724 28.0001 30.2111 28.0001C32.0498 28.0001 33.1758 27.5247 33.8338 27.0654C34.6991 26.4614 35.7971 26.2354 36.7891 26.5967C39.1764 27.4661 40.8778 29.7541 40.8778 32.4447Z" fill="#0A365E"/>
<path d="M24.5444 35.3333C25.4649 35.3333 26.2111 34.4378 26.2111 33.3333C26.2111 32.2287 25.4649 31.3333 24.5444 31.3333C23.6239 31.3333 22.8777 32.2287 22.8777 33.3333C22.8777 34.4378 23.6239 35.3333 24.5444 35.3333Z" fill="#10DDFF"/>
<path d="M35.8778 35.3333C36.7982 35.3333 37.5444 34.4378 37.5444 33.3333C37.5444 32.2287 36.7982 31.3333 35.8778 31.3333C34.9573 31.3333 34.2111 32.2287 34.2111 33.3333C34.2111 34.4378 34.9573 35.3333 35.8778 35.3333Z" fill="#10DDFF"/>
<path d="M12.8777 28.6667H15.5444C16.2804 28.6667 16.8777 29.2641 16.8777 30.0001V38.6667C16.8777 39.4027 16.2804 40.0001 15.5444 40.0001H12.8777C11.7737 40.0001 10.8777 39.1041 10.8777 38.0001V30.6667C10.8777 29.5627 11.7737 28.6667 12.8777 28.6667Z" fill="#2473FE"/>
<path d="M47.5444 40H44.8778C44.1418 40 43.5444 39.4027 43.5444 38.6667V30C43.5444 29.264 44.1418 28.6667 44.8778 28.6667H47.5444C48.6484 28.6667 49.5444 29.5627 49.5444 30.6667V38C49.5444 39.104 48.6484 40 47.5444 40Z" fill="#2473FE"/>
<path d="M31.5444 45.3333H36.8778C37.2458 45.3333 37.5444 45.6319 37.5444 45.9999V48.6666C37.5444 49.0346 37.2458 49.3333 36.8778 49.3333H31.5444C30.4404 49.3333 29.5444 48.4373 29.5444 47.3333C29.5444 46.2293 30.4404 45.3333 31.5444 45.3333Z" fill="#0A365E"/>
<path d="M30.2111 37.3334C29.2277 37.3334 28.5617 36.7281 28.3231 36.3701C28.1184 36.0641 28.2011 35.6501 28.5077 35.4454C28.8124 35.2407 29.2284 35.3234 29.4324 35.6301C29.4371 35.6361 29.7051 36.0001 30.2111 36.0001C30.7204 36.0001 30.9871 35.6334 30.9897 35.6301C31.1937 35.3234 31.6084 35.2407 31.9144 35.4454C32.2211 35.6501 32.3037 36.0641 32.0991 36.3701C31.8604 36.7281 31.1944 37.3334 30.2111 37.3334Z" fill="#10DDFF"/>
</g>
<defs>
<clipPath id="clip0_132_481">
<rect width="40" height="40" fill="white" transform="translate(10.2111 10)"/>
</clipPath>
</defs>
</svg>
