<svg width="156" height="150" viewBox="0 0 156 150" fill="none" xmlns="http://www.w3.org/2000/svg">
<g clip-path="url(#clip0_49_859)">
<path opacity="0.15" d="M35.9471 138.326C36.2332 141.431 38.4363 144.106 41.1259 145.708C43.8155 147.296 46.9342 147.968 50.01 148.483C63.2718 150.73 77.02 150.629 90.0386 147.225C103.043 143.805 115.289 136.981 124.288 126.981C126.949 124.034 129.395 120.758 132.771 118.655C136.419 116.38 140.825 115.679 144.66 113.748C148.494 111.817 151.956 107.768 150.883 103.605C150.182 100.887 147.721 98.9699 145.16 97.7968C136.448 93.8197 126.305 96.4234 117.12 99.07C95.3605 105.35 73.6009 111.631 51.8412 117.911C40.8827 121.073 29.9099 124.235 18.9514 127.411C15.0172 128.541 10.2532 129.084 7.70673 132.647C6.09014 134.907 5.37483 138.255 7.6352 140.358C10.7539 143.247 17.6352 143.348 21.598 143.104C26.6767 142.818 31.7125 141.23 35.9471 138.326Z" fill="black"/>
<path d="M123.186 113.791C135.904 118.355 149.91 111.745 154.473 99.0272C159.037 86.309 152.428 72.3033 139.71 67.7396C126.991 63.176 112.986 69.7854 108.422 82.5036C103.858 95.2218 110.468 109.227 123.186 113.791Z" fill="white"/>
<path d="M109.953 102.432C115.618 92.0028 129.051 68.4263 134.288 69.628C140.997 71.1588 142.328 77.9685 140.067 90.9299C137.807 103.891 135.847 106.624 142.785 108.154C147.32 109.156 151.97 102.918 154.659 98.4692C154.602 98.6552 154.545 98.8555 154.474 99.0415C149.91 111.76 135.904 118.369 123.186 113.805C117.292 111.674 112.714 107.539 109.953 102.432Z" fill="url(#paint0_linear_49_859)"/>
<path d="M139.767 81.2017C139.767 81.2017 141.326 118.798 114.402 134.449C87.4778 150.1 57.7496 147.525 47.2632 139.757C37.8927 132.818 40.5823 106.094 25.9471 94.4063C23.2575 92.2604 23.3147 88.1259 26.0758 86.0801C36.1903 78.5694 57.5064 64.8498 79.8813 63.5766C110.883 61.8026 139.652 59.3276 139.767 81.2017Z" fill="white"/>
<path d="M139.28 76.7382C139.452 77.4535 139.567 78.2117 139.652 78.9985C136.405 77.2532 127.807 73.2904 116.405 73.2904L116.333 71.4878C126.963 71.4878 135.146 74.6924 139.28 76.7382Z" fill="url(#paint1_linear_49_859)"/>
<path d="M60.4106 74.1631L60.711 75.937C60.4964 75.98 39.3949 79.7997 30.4249 96.3948L28.8369 95.5365C38.2361 78.1545 59.5093 74.3061 60.4106 74.1631Z" fill="url(#paint2_linear_49_859)"/>
<path d="M55.4464 69.3991C63.0715 66.3519 71.412 64.0773 79.8956 63.5908C94.0444 62.7754 107.721 61.8169 118.422 63.1044C119.552 69.8999 124.073 89.9857 102.943 96.3662C80.2246 103.219 64.3734 82.0172 55.4464 69.3991Z" fill="url(#paint3_linear_49_859)"/>
<path d="M61.04 67.3533C67.0772 65.3648 73.4435 63.9485 79.8955 63.5765C89.7668 63.0043 99.4091 62.3748 107.993 62.4749C109.295 63.8626 110.439 65.422 111.369 67.1674C114.416 72.8469 114.33 79.7854 110.697 85.093C108.551 88.2403 104.96 91.1874 98.9513 92.2747C83.9585 95.0357 68.3648 83.3762 61.04 67.3533Z" fill="black"/>
<path d="M107.993 62.4892C109.295 63.8769 110.439 65.4363 111.369 67.1816C111.612 67.6251 111.813 68.0829 112.013 68.5407C102.399 67.6251 85.2032 67.3533 64.0014 72.9184C62.8999 71.1444 61.8984 69.2846 61.0258 67.3676C67.063 65.3791 73.4292 63.9628 79.8813 63.5908C89.7668 63.0185 99.4235 62.3891 107.993 62.4892Z" fill="#414042"/>
<path d="M100.625 120.315C109.552 119.356 113.3 116.366 113.458 116.237L113.515 115.35C113.472 115.379 109.538 118.455 100.911 119.385L100.625 120.315Z" fill="url(#paint4_linear_49_859)"/>
<path d="M15.5322 92.4463C17.5351 89.3419 21.0258 87.5393 24.7168 87.6824C32.3992 87.9685 44.9028 91.03 49.6524 107.067C55.847 127.911 35.9614 133.691 35.9614 133.691L15.5322 92.4463Z" fill="black"/>
<path d="M48.8798 112.718C50.2532 126.152 40.4678 138.169 27.0343 139.542C13.5866 140.901 1.5837 131.116 0.210308 117.682C-1.16308 104.249 8.62232 92.2317 22.0558 90.8583C35.5036 89.4849 47.5064 99.2703 48.8798 112.718Z" fill="white"/>
<path d="M27.0343 139.528C17.4635 140.501 8.63662 135.823 3.84406 128.212C6.30471 125.637 10.4964 125.465 14.0873 128.827C20.3247 134.692 35.6752 134.421 36.6194 111.574C37.1774 98.2689 29.6953 92.9184 23.3576 90.7581C36.2761 90.1144 47.5637 99.6995 48.8941 112.704C50.2532 126.152 40.4678 138.154 27.0343 139.528Z" fill="url(#paint5_linear_49_859)"/>
<path d="M105.833 69.5995C105.833 69.5995 106.405 84.0057 95.3319 85.0215C87.8927 85.7082 79.6953 79.0701 75.1316 74.6638C72.9427 72.5465 72.3991 69.2418 73.8011 66.5236L77.206 59.9142L105.833 69.5995Z" fill="url(#paint6_linear_49_859)"/>
<path d="M75.7181 64.3348L79.9814 60.8441L105.818 69.5852C105.818 69.5852 106.305 82.2032 97.3061 84.6496C83.9299 78.4121 75.7181 64.3348 75.7181 64.3348Z" fill="#BCBEC0"/>
<path d="M62.3133 27.8684C64.7167 10 81.3548 -2.46063 99.2661 0.414903C116.205 3.13307 126.791 17.0959 124.76 34.1345C124.073 39.8427 123.272 46.8241 120.11 51.1302L115.461 60.7869C112.399 67.1674 107.077 72.1746 100.539 74.8641C93.0858 77.9256 84.5021 75.8369 79.2804 69.6853L73.6295 63.0043C71.1259 60.0429 69.5808 56.3949 69.2232 52.5465L69.2089 52.4035C64.8598 47.0387 62.2275 40.2861 62.0272 33.0758C61.9127 32.99 62.1702 28.9128 62.3133 27.8684Z" fill="white"/>
<path d="M73.6438 63.0043C71.1402 60.0429 69.5951 56.3949 69.2375 52.5465L69.2231 52.4034C64.8741 47.0386 62.2417 40.2861 62.0415 33.0758C61.9127 32.99 62.1702 28.9127 62.3133 27.8684C62.4277 26.9814 62.5851 26.0944 62.7854 25.2361C66.7196 24.7783 74.8169 24.7354 78.8226 31.259C84.2303 40.0715 80.6824 40.6009 78.8798 46.7811C77.2775 52.2747 78.4506 66.0229 78.7224 68.9986L73.6438 63.0043Z" fill="url(#paint7_linear_49_859)"/>
<path d="M84.545 1.47351C83.0143 1.95992 81.5264 2.54647 80.0958 3.24747C81.5264 2.54647 83.0143 1.94561 84.545 1.47351Z" fill="url(#paint8_linear_49_859)"/>
<path d="M85.7038 1.13013C85.3176 1.23027 84.9456 1.34472 84.5593 1.45917C84.9313 1.34472 85.3176 1.23027 85.7038 1.13013Z" fill="url(#paint9_linear_49_859)"/>
<path d="M87.0343 0.801147C87.0486 0.801147 87.0486 0.801147 87.0343 0.801147C86.9914 0.815454 86.9485 0.82976 86.8912 0.82976C86.9485 0.815454 86.9914 0.801147 87.0343 0.801147Z" fill="url(#paint10_linear_49_859)"/>
<path d="M85.7468 1.11584C86.1187 1.01569 86.4907 0.915549 86.877 0.829712C86.4907 0.929855 86.1187 1.01569 85.7468 1.11584Z" fill="url(#paint11_linear_49_859)"/>
<path d="M115.475 60.7868C115.289 61.1731 115.103 61.5451 114.903 61.917C114.831 62.0458 114.76 62.1745 114.688 62.3033C114.559 62.5465 114.416 62.7754 114.288 63.0186C114.187 63.176 114.102 63.3333 114.001 63.4764C113.873 63.6767 113.758 63.877 113.615 64.0773C113.501 64.2489 113.386 64.4063 113.272 64.578C113.143 64.7496 113.029 64.9356 112.9 65.1073C112.771 65.279 112.642 65.4506 112.514 65.6223C112.399 65.7797 112.27 65.9371 112.156 66.0944C112.013 66.2804 111.87 66.4521 111.727 66.6237C111.612 66.7668 111.498 66.9099 111.369 67.0386C111.212 67.2246 111.054 67.4106 110.883 67.5823C110.768 67.6967 110.668 67.8255 110.554 67.9399C110.382 68.1259 110.196 68.3119 110.01 68.4979C109.91 68.598 109.81 68.6981 109.71 68.7983C109.509 68.9986 109.309 69.1845 109.109 69.3848C109.023 69.4564 108.937 69.5279 108.866 69.6137C108.637 69.8283 108.408 70.0286 108.165 70.2289C108.122 70.2718 108.079 70.3004 108.036 70.3434C106.219 71.8598 104.23 73.1474 102.07 74.1774C104.774 71.5594 109.466 65.7082 111.398 55.4363C114.187 40.6295 120.568 16.0944 102.628 6.49499C97.8784 3.9485 91.9985 1.05866 87.0629 0.786838C87.392 0.715308 87.721 0.643777 88.0501 0.572246C88.0787 0.572246 88.1216 0.55794 88.1502 0.55794C88.5078 0.486409 88.8798 0.429185 89.2518 0.37196C89.2661 0.37196 89.2947 0.37196 89.309 0.357654C89.681 0.300429 90.0672 0.243205 90.4392 0.200286C90.4964 0.200286 90.5536 0.18598 90.6109 0.18598C90.9685 0.143062 91.3262 0.114449 91.6838 0.0858369C91.7124 0.0858369 91.7267 0.0858369 91.7553 0.0858369C92.1273 0.0572246 92.4993 0.0429185 92.8855 0.0286123C92.9571 0.0286123 93.0286 0.0286123 93.1001 0.0143062C93.4578 0 93.8011 0 94.1588 0C94.1874 0 94.216 0 94.2303 0C94.6023 0 94.9742 0.0143062 95.3462 0.0286123C95.432 0.0286123 95.5179 0.0286123 95.6037 0.0429185C95.9614 0.0572246 96.319 0.0858369 96.6767 0.114449C96.691 0.114449 96.7196 0.114449 96.7339 0.114449C97.1058 0.143062 97.4778 0.18598 97.8641 0.228898C97.9499 0.243205 98.0501 0.257511 98.1359 0.257511C98.5079 0.300429 98.8941 0.357654 99.2661 0.414878C106.677 1.60229 112.871 4.94993 117.335 9.75679C117.649 10.1001 117.964 10.4578 118.265 10.8155C118.694 11.3305 119.094 11.8455 119.481 12.3891C120.182 13.3619 120.84 14.3777 121.426 15.4506C121.655 15.8655 121.87 16.2804 122.07 16.7096C122.685 17.9828 123.215 19.3133 123.644 20.6867C123.815 21.2303 123.958 21.7883 124.102 22.3462C124.431 23.6624 124.674 25.0215 124.831 26.4235C124.946 27.4106 125.003 28.4263 125.017 29.4564C125.046 30.9871 124.96 32.5608 124.774 34.1631C124.402 37.2961 123.987 40.8298 123.157 44.0773C122.671 45.9943 122.041 47.8255 121.197 49.4278C120.868 50.0429 120.511 50.6295 120.124 51.1588L115.475 60.7868Z" fill="url(#paint12_linear_49_859)"/>
<path d="M110.568 54.2203L111.312 55.8655L113.172 53.9628L116.248 53.0902C116.662 52.9757 117.077 52.8326 117.464 52.661C118.408 52.2461 118.637 52.103 120.11 51.1302C122.986 47.196 123.916 41.0587 124.574 35.6796C122.685 36.8527 115.632 40.8155 106.062 40.8155C98.2647 40.8155 91.8698 39.9714 88.6939 39.4564C87.3491 39.2418 86.0043 39.8283 85.2461 40.9585C84.8312 41.588 84.6309 42.3176 84.6595 43.0758L84.3448 48.3548C84.3448 48.3548 84.1302 53.3334 89.2518 54.1631C94.3877 54.9929 103.129 54.5351 110.568 54.2203Z" fill="black"/>
<path d="M62.2847 36.2232C62.2847 36.2232 72.6709 34.8069 74.3591 44.0487C76.0472 53.2904 78.8369 69.1274 78.8369 69.1274L73.3004 62.5895C70.8684 59.7282 69.4377 56.1374 69.2232 52.3892C69.2232 52.4035 62.0415 48.3834 62.2847 36.2232Z" fill="black"/>
<path d="M63.9442 40.3862H63.9585C63.9585 40.3862 63.9728 40.3862 63.9728 40.3719H63.9871C63.9871 40.3719 64.0014 40.3719 64.0014 40.3576H64.0158C64.0158 40.3576 64.0301 40.3576 64.0301 40.3433H64.0444C64.0444 40.3433 64.0587 40.3433 64.0587 40.329H64.073C64.073 40.329 64.0873 40.329 64.0873 40.3147H64.1016C64.1016 40.3147 64.1159 40.3147 64.1159 40.3004H64.1302C64.1302 40.3004 64.1445 40.3004 64.1445 40.2861H64.1588C64.1588 40.2861 64.1731 40.2861 64.1731 40.2718H64.1874C64.1874 40.2718 64.2017 40.2718 64.2017 40.2575H64.216C64.216 40.2575 64.2303 40.2575 64.2303 40.2432H64.2447C64.2447 40.2432 64.259 40.2432 64.259 40.2289H64.2733C64.2733 40.2289 64.2876 40.2289 64.2876 40.2146H64.3019C64.3019 40.2146 64.3162 40.2146 64.3162 40.2003H64.3305C64.3305 40.2003 64.3448 40.2002 64.3448 40.1859H64.3591C64.3591 40.1859 64.3734 40.1859 64.3734 40.1716H64.3877C64.3877 40.1716 64.402 40.1716 64.402 40.1573H64.4163C64.4163 40.1573 64.4306 40.1573 64.4306 40.143H64.4449C64.4449 40.143 64.4592 40.143 64.4592 40.1287H64.4736C64.4736 40.1287 64.4879 40.1287 64.4879 40.1144H64.5022C64.5022 40.1144 64.5165 40.1144 64.5165 40.1001H64.5308C64.5308 40.1001 64.5451 40.1001 64.5451 40.0858H64.5594C64.5594 40.0858 64.5737 40.0858 64.5737 40.0715H64.588C64.588 40.0715 64.6023 40.0715 64.6023 40.0572H64.6166C64.6166 40.0572 64.6309 40.0572 64.6309 40.0429H64.6452C64.6452 40.0429 64.6595 40.0429 64.6595 40.0286H64.6738C64.6738 40.0286 64.6881 40.0286 64.6881 40.0143H64.7025C64.7025 40.0143 64.7168 40.0143 64.7168 40H64.7311C64.7311 40 64.7454 40 64.7454 39.9857H64.7597C64.7597 39.9857 64.774 39.9857 64.774 39.9714H64.7883C64.7883 39.9714 64.8026 39.9714 64.8026 39.957H64.8169C64.8169 39.957 64.8312 39.957 64.8312 39.9427H64.8455C64.8455 39.9427 64.8598 39.9427 64.8598 39.9284H64.8741C64.8741 39.9284 64.8884 39.9284 64.8884 39.9141H64.9027C64.9027 39.9141 64.917 39.9141 64.917 39.8998H64.9313C64.9313 39.8998 64.9457 39.8998 64.9457 39.8855H64.96C64.96 39.8855 64.9743 39.8855 64.9743 39.8712H64.9886C64.9886 39.8712 65.0029 39.8712 65.0029 39.8569H65.0172C65.0172 39.8569 65.0315 39.8569 65.0315 39.8426H65.0458C65.0458 39.8426 65.0601 39.8426 65.0601 39.8283H65.0744C65.0744 39.8283 65.0887 39.8283 65.0887 39.814H65.103C65.103 39.814 65.1173 39.814 65.1173 39.7997H65.1316C65.1316 39.7997 65.1459 39.7997 65.1459 39.7854H65.1602C65.1602 39.7854 65.1746 39.7854 65.1746 39.7711H65.1889C65.1889 39.7711 65.2032 39.7711 65.2032 39.7568H65.2175C65.2175 39.7568 65.2318 39.7568 65.2318 39.7425H65.2461C65.2461 39.7425 65.2604 39.7425 65.2604 39.7281H65.2747C65.2747 39.7281 65.289 39.7281 65.289 39.7138H65.3033C65.3033 39.7138 65.3176 39.7138 65.3176 39.6995H65.3319C65.3319 39.6995 65.3462 39.6995 65.3462 39.6852H65.3605C65.3605 39.6852 65.3748 39.6852 65.3748 39.6709H65.3891C65.3891 39.6709 65.4035 39.6709 65.4035 39.6566H65.4178C65.4178 39.6566 65.4321 39.6566 65.4321 39.6423H65.4464C65.4464 39.6423 65.4607 39.6423 65.4607 39.628H65.475C65.475 39.628 65.4893 39.628 65.4893 39.6137H65.5036C65.5036 39.6137 65.5179 39.6137 65.5179 39.5994H65.5322C65.5322 39.5994 65.5465 39.5994 65.5465 39.5851H65.5608C65.5608 39.5851 65.5751 39.5851 65.5751 39.5708H65.5894C65.5894 39.5708 65.6037 39.5708 65.6037 39.5565H65.618C65.618 39.5565 65.6324 39.5565 65.6324 39.5422H65.6467C65.6467 39.5422 65.661 39.5422 65.661 39.5279H65.6753C65.6753 39.5279 65.6896 39.5279 65.6896 39.5136H65.7039C65.7039 39.5136 65.7182 39.5136 65.7182 39.4992H65.7325C65.7325 39.4992 65.7468 39.4992 65.7468 39.4849C67.4063 38.9413 69.5093 40.7868 70.4535 43.6337C71.3977 46.4663 70.8112 49.2131 69.1517 49.7711H69.1374C69.1374 49.7711 69.1231 49.7711 69.1231 49.7854H69.1087C69.1087 49.7854 69.0944 49.7854 69.0944 49.7997H69.0801C69.0801 49.7997 69.0658 49.7997 69.0658 49.814H69.0515C69.0515 49.814 69.0372 49.814 69.0372 49.8283H69.0229C69.0229 49.8283 69.0086 49.8283 69.0086 49.8426H68.9943C68.9943 49.8426 68.98 49.8426 68.98 49.8569H68.9657C68.9657 49.8569 68.9514 49.8569 68.9514 49.8712H68.9371C68.9371 49.8712 68.9228 49.8712 68.9228 49.8855H68.9085C68.9085 49.8855 68.8942 49.8855 68.8942 49.8998H68.8798C68.8798 49.8998 68.8655 49.8998 68.8655 49.9141H68.8512C68.8512 49.9141 68.8369 49.9141 68.8369 49.9284H68.8226C68.8226 49.9284 68.8083 49.9284 68.8083 49.9427H68.794C68.794 49.9427 68.7797 49.9427 68.7797 49.957H68.7654C68.7654 49.957 68.7511 49.957 68.7511 49.9714H68.7368C68.7368 49.9714 68.7225 49.9714 68.7225 49.9857H68.7082C68.7082 49.9857 68.6939 49.9857 68.6939 50H68.6796C68.6796 50 68.6653 50 68.6653 50.0143C68.6653 50.0286 68.6509 50.0143 68.6509 50.0143C68.6509 50.0143 68.6366 50.0143 68.6366 50.0286H68.6223C68.6223 50.0286 68.608 50.0286 68.608 50.0429H68.5937C68.5937 50.0429 68.5794 50.0429 68.5794 50.0572H68.5651C68.5651 50.0572 68.5508 50.0572 68.5508 50.0715H68.5365C68.5365 50.0715 68.5222 50.0715 68.5222 50.0858H68.5079C68.5079 50.0858 68.4936 50.0858 68.4936 50.1001H68.4793C68.4793 50.1001 68.465 50.1001 68.465 50.1144H68.4507C68.4507 50.1144 68.4364 50.1144 68.4364 50.1287H68.422C68.422 50.1287 68.4077 50.1287 68.4077 50.143H68.3934C68.3934 50.143 68.3791 50.143 68.3791 50.1573H68.3648C68.3648 50.1573 68.3505 50.1573 68.3505 50.1716H68.3362C68.3362 50.1716 68.3219 50.1716 68.3219 50.1859H68.3076C68.3076 50.1859 68.2933 50.1859 68.2933 50.2003H68.279C68.279 50.2003 68.2647 50.2003 68.2647 50.2146H68.2504C68.2504 50.2146 68.2361 50.2146 68.2361 50.2289H68.2218C68.2218 50.2289 68.2075 50.2289 68.2075 50.2432H68.1932C68.1932 50.2432 68.1788 50.2432 68.1788 50.2575H68.1645C68.1645 50.2575 68.1502 50.2575 68.1502 50.2718H68.1359C68.1359 50.2718 68.1216 50.2718 68.1216 50.2861H68.1073C68.1073 50.2861 68.093 50.2861 68.093 50.3004H68.0787C68.0787 50.3004 68.0644 50.3004 68.0644 50.3147H68.0501C68.0501 50.3147 68.0358 50.3147 68.0358 50.329H68.0215C68.0215 50.329 68.0072 50.329 68.0072 50.3433H67.9929C67.9929 50.3433 67.9786 50.3433 67.9786 50.3576H67.9643C67.9643 50.3576 67.9499 50.3576 67.9499 50.3719H67.9356C67.9356 50.3719 67.9213 50.3719 67.9213 50.3862H67.907C67.907 50.3862 67.8927 50.3862 67.8927 50.4005H67.8784C67.8784 50.4005 67.8641 50.4005 67.8641 50.4148H67.8498C67.8498 50.4148 67.8355 50.4148 67.8355 50.4291H67.8212C67.8212 50.4291 67.8069 50.4292 67.8069 50.4435H67.7926C67.7926 50.4435 67.7783 50.4435 67.7783 50.4578H67.764C67.764 50.4578 67.7497 50.4578 67.7497 50.4721H67.7354C67.7354 50.4721 67.721 50.4721 67.721 50.4864H67.7067C67.7067 50.4864 67.6924 50.4864 67.6924 50.5007H67.6781C67.6781 50.5007 67.6638 50.5007 67.6638 50.515H67.6495C67.6495 50.515 67.6352 50.515 67.6352 50.5293H67.6209C67.6209 50.5293 67.6066 50.5293 67.6066 50.5436H67.5923C67.5923 50.5436 67.578 50.5436 67.578 50.5579H67.5637C67.5637 50.5579 67.5494 50.5579 67.5494 50.5722H67.5351C67.5351 50.5722 67.5208 50.5722 67.5208 50.5865H67.5065C67.5065 50.5865 67.4922 50.5865 67.4922 50.6008H67.4778C67.4778 50.6008 67.4635 50.6008 67.4635 50.6151H67.4492C67.4492 50.6151 67.4349 50.6151 67.4349 50.6294H67.4206C67.4206 50.6294 67.4063 50.6294 67.4063 50.6437H67.392C67.392 50.6437 67.3777 50.6437 67.3777 50.658H67.3634C67.3634 50.658 67.3491 50.658 67.3491 50.6724C65.6896 51.216 63.5866 49.3705 62.6424 46.5236C61.6982 43.6766 62.2847 40.9299 63.9442 40.3862Z" fill="#6D6E71"/>
<path d="M62.6424 46.5092C63.5866 49.3418 65.6896 51.2016 67.3491 50.658C69.0086 50.1144 69.5808 47.3676 68.6509 44.5207C67.7067 41.688 65.6037 39.8282 63.9442 40.3719C62.2847 40.9298 61.6982 43.6766 62.6424 46.5092Z" fill="white"/>
<path d="M63.186 46.3376C63.887 48.4692 65.4607 49.8569 66.7053 49.442C67.95 49.0271 68.3791 46.9671 67.6781 44.8498C66.9771 42.7181 65.4035 41.3304 64.1588 41.7453C62.9142 42.1602 62.4707 44.206 63.186 46.3376Z" fill="url(#paint13_linear_49_859)"/>
<path d="M120.911 39.0701C117.22 41.0014 108.508 43.7052 90.0672 41.9742C88.794 41.8598 87.6638 42.7467 87.4921 44.02L87.0629 47.2103C86.7768 49.3562 88.3505 51.3018 90.4964 51.4735C106.777 52.8183 115.074 50.5865 118.98 48.7553C120.84 47.8826 122.127 46.123 122.399 44.0915L122.886 40.4577C123.029 39.3562 121.898 38.555 120.911 39.0701Z" fill="url(#paint14_linear_49_859)"/>
<path opacity="0.5" d="M117.006 40.6151C118.694 40.1001 119.967 39.5565 120.911 39.0701C121.884 38.555 123.029 39.3562 122.886 40.4577L122.399 44.0915C122.127 46.123 120.84 47.8969 118.98 48.7553C118.064 49.1845 116.906 49.628 115.461 50.0572C116.562 46.1659 116.92 42.8183 117.006 40.6151Z" fill="white"/>
<path d="M83.1573 1.94567C87.2203 0.457832 91.6409 -0.228864 96.1903 0.0715654C101.34 1.55941 106.577 4.60662 110.582 10.4292C111.169 11.2876 110.597 12.475 109.552 12.5465H109.481C107.821 12.6753 106.233 11.9457 105.217 10.6295C102.771 7.45354 96.5479 1.84553 83.1573 1.94567Z" fill="url(#paint15_linear_49_859)"/>
<path d="M92.2132 46.8956C92.5136 45.9514 92.1274 45.2075 91.3405 45.2218C90.5537 45.2361 89.6667 46.0086 89.3663 46.9528C89.0658 47.897 89.4521 48.6409 90.2389 48.6266C91.0258 48.6123 91.9128 47.8398 92.2132 46.8956Z" fill="white"/>
<path d="M106.82 10.1574C106.82 10.8727 107.435 11.5451 108.207 11.6596C108.98 11.774 109.595 11.3019 109.595 10.5866C109.595 9.8713 108.98 9.19891 108.207 9.08446C107.435 8.97002 106.82 9.44212 106.82 10.1574Z" fill="black"/>
<path d="M102.385 88.9127C100.997 89.5565 98.3076 90.2432 96.3476 90.1001C94.6738 89.9714 94.216 91.8025 94.0443 92.6752C93.701 94.3776 93.2718 95.9656 91.8412 97.6252C91.8412 97.6252 97.2632 100.73 107.263 95.3076C107.263 95.3076 106.319 93.9914 104.831 90.3004C104.502 89.485 103.2 88.5407 102.385 88.9127Z" fill="white"/>
<path d="M96.6767 99.4706C96.4335 101.259 97.7782 102.232 99.6667 101.659C101.555 101.087 103.286 99.1845 103.529 97.3962C103.773 95.608 102.428 94.6351 100.539 95.2074C98.6366 95.7796 96.9056 97.6966 96.6767 99.4706Z" fill="black"/>
<path d="M98.2075 99.0128C98.0787 100 98.8083 100.529 99.8527 100.215C100.897 99.8998 101.841 98.8555 101.984 97.8683C102.113 96.8812 101.383 96.3519 100.339 96.6666C99.2947 96.9814 98.3362 98.0257 98.2075 99.0128Z" fill="url(#paint16_linear_49_859)"/>
</g>
<defs>
<linearGradient id="paint0_linear_49_859" x1="46.7403" y1="65.7101" x2="309.6" y2="149.019" gradientUnits="userSpaceOnUse">
<stop stop-color="#D25CFF"/>
<stop offset="1" stop-color="#4DCAFF"/>
</linearGradient>
<linearGradient id="paint1_linear_49_859" x1="11.806" y1="-76.0242" x2="221.837" y2="197.351" gradientUnits="userSpaceOnUse">
<stop stop-color="#D25CFF"/>
<stop offset="1" stop-color="#4DCAFF"/>
</linearGradient>
<linearGradient id="paint2_linear_49_859" x1="-45.2705" y1="-32.1648" x2="164.752" y2="241.199" gradientUnits="userSpaceOnUse">
<stop stop-color="#D25CFF"/>
<stop offset="1" stop-color="#4DCAFF"/>
</linearGradient>
<linearGradient id="paint3_linear_49_859" x1="100.746" y1="105.285" x2="87.5862" y2="68.0887" gradientUnits="userSpaceOnUse">
<stop stop-color="#9100C9"/>
<stop offset="1" stop-color="#008FCC"/>
</linearGradient>
<linearGradient id="paint4_linear_49_859" x1="-21.9425" y1="-50.0926" x2="188.087" y2="223.281" gradientUnits="userSpaceOnUse">
<stop stop-color="#D25CFF"/>
<stop offset="1" stop-color="#4DCAFF"/>
</linearGradient>
<linearGradient id="paint5_linear_49_859" x1="-51.4198" y1="31.8314" x2="125.064" y2="225.503" gradientUnits="userSpaceOnUse">
<stop stop-color="#D25CFF"/>
<stop offset="1" stop-color="#4DCAFF"/>
</linearGradient>
<linearGradient id="paint6_linear_49_859" x1="-10.3275" y1="-59.0214" x2="199.706" y2="214.357" gradientUnits="userSpaceOnUse">
<stop stop-color="#D25CFF"/>
<stop offset="1" stop-color="#4DCAFF"/>
</linearGradient>
<linearGradient id="paint7_linear_49_859" x1="-7.16798" y1="-61.451" x2="202.868" y2="211.931" gradientUnits="userSpaceOnUse">
<stop stop-color="#D25CFF"/>
<stop offset="1" stop-color="#4DCAFF"/>
</linearGradient>
<linearGradient id="paint8_linear_49_859" x1="79.6376" y1="-0.312384" x2="86.2743" y2="6.27933" gradientUnits="userSpaceOnUse">
<stop stop-color="#D25CFF"/>
<stop offset="1" stop-color="#4DCAFF"/>
</linearGradient>
<linearGradient id="paint9_linear_49_859" x1="84.3224" y1="0.496779" x2="86.3177" y2="2.47858" gradientUnits="userSpaceOnUse">
<stop stop-color="#D25CFF"/>
<stop offset="1" stop-color="#4DCAFF"/>
</linearGradient>
<linearGradient id="paint10_linear_49_859" x1="86.8542" y1="0.692678" x2="87.1525" y2="0.988977" gradientUnits="userSpaceOnUse">
<stop stop-color="#D25CFF"/>
<stop offset="1" stop-color="#4DCAFF"/>
</linearGradient>
<linearGradient id="paint11_linear_49_859" x1="85.4615" y1="0.140813" x2="87.5447" y2="2.20999" gradientUnits="userSpaceOnUse">
<stop stop-color="#D25CFF"/>
<stop offset="1" stop-color="#4DCAFF"/>
</linearGradient>
<linearGradient id="paint12_linear_49_859" x1="10.1759" y1="-56.8935" x2="233.07" y2="164.49" gradientUnits="userSpaceOnUse">
<stop stop-color="#D25CFF"/>
<stop offset="1" stop-color="#4DCAFF"/>
</linearGradient>
<linearGradient id="paint13_linear_49_859" x1="67.0633" y1="50.2512" x2="64.1986" y2="42.099" gradientUnits="userSpaceOnUse">
<stop stop-color="#9100C9"/>
<stop offset="1" stop-color="#008FCC"/>
</linearGradient>
<linearGradient id="paint14_linear_49_859" x1="83.8789" y1="49.1246" x2="125.312" y2="42.5332" gradientUnits="userSpaceOnUse">
<stop stop-color="#9100C9"/>
<stop offset="1" stop-color="#008FCC"/>
</linearGradient>
<linearGradient id="paint15_linear_49_859" x1="110.805" y1="6.28779" x2="83.1554" y2="6.28779" gradientUnits="userSpaceOnUse">
<stop stop-color="#9100C9"/>
<stop offset="1" stop-color="#008FCC"/>
</linearGradient>
<linearGradient id="paint16_linear_49_859" x1="99.6765" y1="101.55" x2="100.488" y2="95.5122" gradientUnits="userSpaceOnUse">
<stop stop-color="#5B61F0"/>
<stop offset="1" stop-color="#94F4FF"/>
</linearGradient>
<clipPath id="clip0_49_859">
<rect width="155.837" height="150" fill="white" transform="translate(0.081543)"/>
</clipPath>
</defs>
</svg>
