<svg width="61" height="60" viewBox="0 0 61 60" fill="none" xmlns="http://www.w3.org/2000/svg">
<g clip-path="url(#clip0_135_187)">
<path d="M60.7888 30C60.7888 35.7853 59.1423 41.1849 56.2897 45.7558C56.2106 45.8823 56.1304 46.0077 56.05 46.133C54.99 47.7771 53.7718 49.3129 52.4174 50.7123C52.404 50.727 52.3907 50.7403 52.3772 50.7549C51.03 52.1446 49.549 53.403 47.9536 54.5091C47.8623 54.5724 47.771 54.6356 47.6786 54.6978C47.1151 55.0799 46.5395 55.4425 45.9505 55.7857C45.8665 55.8344 45.7826 55.8831 45.6974 55.9306C44.5242 56.5986 43.3013 57.1889 42.0356 57.6939C38.6148 59.063 34.8825 59.815 30.9737 59.815C24.6225 59.815 18.7362 57.8289 13.9001 54.4446C11.6172 52.8481 9.56778 50.9386 7.81665 48.7798C3.65239 43.654 1.15887 37.1179 1.15887 30C1.15887 13.5337 14.5075 0.185059 30.9738 0.185059C47.4402 0.185059 60.7888 13.5337 60.7888 30Z" fill="#60C5E8"/>
<path d="M0.788818 15.4183C1.67698 19.2223 9.33671 20.6859 17.8975 18.6873C26.4583 16.6888 32.678 11.9847 31.79 8.18066" fill="#D33531"/>
<path d="M42.0358 6.1626V57.6938C38.6149 59.0629 34.8826 59.8149 30.9738 59.8149C24.6226 59.8149 18.7363 57.8288 13.9002 54.4445C11.6173 52.848 9.56791 50.9385 7.81677 48.7797V31.3569C7.81677 21.4912 13.4865 12.9507 21.7458 8.81549C25.1361 7.11791 28.9622 6.1626 33.011 6.1626H42.0358Z" fill="#EA5A52"/>
<path d="M39.0945 6.1626C35.0458 6.1626 31.2197 7.11791 27.8292 8.81549C19.5699 12.9507 13.9002 21.4911 13.9002 31.3569V54.4445C11.6173 52.848 9.56791 50.9385 7.81677 48.7797V31.3569C7.81677 21.4912 13.4865 12.9507 21.7458 8.81549C25.1361 7.11791 28.9622 6.1626 33.011 6.1626H39.0945Z" fill="#D33531"/>
<path d="M1.17603 6.16309C1.17603 10.0694 8.30255 13.2362 17.0935 13.2362C25.8844 13.2362 33.011 10.0694 33.011 6.16309" fill="#EA5A52"/>
<path d="M42.0355 6.16309V37.1026H40.0956C32.1123 37.1026 25.0738 33.0579 20.9176 26.9057C20.1347 25.7469 19.4541 23.5941 18.8887 21.1857C17.0957 13.5489 22.8914 6.20047 30.7357 6.16344C30.7858 6.1632 30.8357 6.16309 30.8857 6.16309H42.0355Z" fill="#EAEAEA"/>
<path d="M60.1962 24.3242V31.206H42.0346V6.1626C47.0496 6.1626 51.59 8.19615 54.877 11.4819C58.1627 14.7687 60.1962 19.3092 60.1962 24.3242Z" fill="#5C5560"/>
<path d="M35.7064 21.2708C37.7448 21.2708 39.3973 18.9203 39.3973 16.0209C39.3973 13.1214 37.7448 10.771 35.7064 10.771C33.6679 10.771 32.0154 13.1214 32.0154 16.0209C32.0154 18.9203 33.6679 21.2708 35.7064 21.2708Z" fill="#3C363F"/>
<path d="M36.9428 18.6458C37.9617 18.6458 38.7877 17.4706 38.7877 16.021C38.7877 14.5714 37.9617 13.3962 36.9428 13.3962C35.9239 13.3962 35.0979 14.5714 35.0979 16.021C35.0979 17.4706 35.9239 18.6458 36.9428 18.6458Z" fill="#5C5560"/>
<path d="M60.1962 31.206H42.0346V22.4878C42.0346 25.8953 49.2584 31.206 60.1962 31.206Z" fill="#3C363F"/>
</g>
<defs>
<clipPath id="clip0_135_187">
<rect width="60" height="60" fill="white" transform="translate(0.788818)"/>
</clipPath>
</defs>
</svg>
